<?xml version="1.0" encoding="utf-8"?>
<!-- Generator: Adobe Illustrator 25.4.1, SVG Export Plug-In . SVG Version: 6.00 Build 0)  -->
<svg version="1.1" id="Layer_1" xmlns="http://www.w3.org/2000/svg" xmlns:xlink="http://www.w3.org/1999/xlink" x="0px" y="0px"
	 viewBox="0 0 2426.4 709.9" style="enable-background:new 0 0 2426.4 709.9;" xml:space="preserve">
<style type="text/css">
	.st0{fill-rule:evenodd;clip-rule:evenodd;fill:#766E62;}
	.st1{fill-rule:evenodd;clip-rule:evenodd;fill:#6D6356;}
</style>
<path class="st0" d="M942.3,6C741,6,577.7,130.8,577.7,284.8c0,30.2,6.3,59.2,17.9,86.3c-97.4,64-179.9,71-231,71
	c-82.9,0-150.1-67.2-150.1-150.1s67.2-150.1,150.1-150.1c39,0,101.2,39.3,101.2,39.3S590.6,65.6,576.6,57.9
	c-59.7-32.7-132.9-52-212-52C163.2,5.9,0,130.7,0,284.7s163.2,278.8,364.6,278.8c117.6,0,222.2-42.7,288.9-108.8
	c66.7,66.1,171.2,108.8,288.8,108.8c201.4,0,364.6-124.8,364.6-278.8S1143.7,6,942.3,6z M942.3,442c-82.9,0-150.1-67.2-150.1-150.1
	s67.2-150.1,150.1-150.1c82.9,0,150.1,67.2,150.1,150.1S1025.2,442,942.3,442z"/>
<path class="st0" d="M2117.9,13.5c-67.9,0-130.6,19-181.6,51.1V11.7h-178.1v111.9C1692.8,49.1,1581.5,0,1455.3,0
	c-201.4,0-364.6,124.8-364.6,278.8s163.2,278.8,364.6,278.8c126.2,0,237.5-49.1,302.9-123.6v275.9h178.1V495.3
	c51,32.1,113.7,51.1,181.6,51.1c170.4,0,308.5-119.3,308.5-266.5S2288.3,13.5,2117.9,13.5L2117.9,13.5z M1455.3,436
	c-82.9,0-150.1-67.2-150.1-150.1s67.2-150.1,150.1-150.1s150.1,67.2,150.1,150.1S1538.2,436,1455.3,436l624.1-12.9
	c-79.1,0-143.2-64.1-143.2-143.2s64.1-143.2,143.2-143.2c79.1,0,143.1,64.1,143.1,143.2s-64.1,143.2-143.1,143.2L1455.3,436z"/>
<path class="st1" d="M1305.8,302.5c0.9-5.4-0.5-27.8,0.1-33.5c-5.4-72.5-47.1-137.6-111.4-184.9c-62.3,48.7-101.4,114.7-103.8,187.8
	c0.9,6.7,1.3,26.8,1.1,30c7.4,69.9,48.4,132.4,110.7,178.2C1261.9,433.6,1300.3,371.4,1305.8,302.5L1305.8,302.5z"/>
</svg>
