<?xml version="1.0" encoding="utf-8"?>
<!-- Generator: Adobe Illustrator 25.4.1, SVG Export Plug-In . SVG Version: 6.00 Build 0)  -->
<svg version="1.1" id="Layer_1" xmlns="http://www.w3.org/2000/svg" xmlns:xlink="http://www.w3.org/1999/xlink" x="0px" y="0px"
	 viewBox="0 0 2500 670.5" style="enable-background:new 0 0 2500 670.5;" xml:space="preserve">
<style type="text/css">
	.st0{fill:#766E62;}
</style>
<path class="st0" d="M913.3,501.8h57l-9.7-44.3V194.1h-54.5v120.2c-16.3-18.8-39.2-30.1-65.7-30.1c-54.5,0-96.8,45.3-96.8,111
	c0,66.2,42.3,111,96.8,111c27,0,50.4-11.7,66.7-31.6L913.3,501.8z M1991.1,343.3c11.2,0,21.4,3.1,30.6,9.7l26-58.1
	c-12.2-7.6-26-10.7-39.7-10.7c-24.4,0-45.3,11.2-58.1,32.1l-5.6-27h-56l9.2,41.8v171.1h54.5v-136
	C1959,352,1972.8,343.3,1991.1,343.3L1991.1,343.3z M2150.6,449.3c-31.6,0-55-20.9-55-53.5c0-33.1,23.4-53.5,55-53.5
	c32.1,0,55,20.4,55,53.5C2205.6,427.9,2182.7,449.3,2150.6,449.3z M796.7,395.3c0-33.1,23.4-53.5,55-53.5c32.1,0,55,20.4,55,53.5
	c0,32.6-22.9,53.5-55,53.5C820.1,449.3,796.7,427.9,796.7,395.3z M2392.5,449.3c-31.6,0-55-20.9-55-53.5c0-33.1,23.4-53.5,55-53.5
	c32.1,0,55,20.4,55,53.5C2447,427.9,2424.1,449.3,2392.5,449.3z M1102.8,338.8c28,0,46.4,13.2,52.5,37.7h-104.9
	C1055.9,351.5,1074.8,338.8,1102.8,338.8z M1754.3,338.8c28,0,46.4,13.2,52.5,37.7h-104.9C1708.4,351.5,1726.8,338.8,1754.3,338.8
	L1754.3,338.8z M1488.4,501.8h87.6l57-213.4h-59.6l-41.3,173.2l-41.8-172.7h-58.6L1488.4,501.8z M1348.3,501.8h54.5V288.3h-54.5
	V501.8z M1110.9,505.8c30.6,0,60.1-8.7,85.1-24.4l-20.9-46.9c-19.4,10.7-41.8,16.3-63.7,16.3c-28.5,0-48.4-11.2-57.6-32.1h153.8
	c1.5-8.1,2.5-15.3,2.5-25c0-66.2-45.8-110-106.5-110c-61.6,0-106.5,44.8-106.5,111C996.8,462.5,1041.7,505.8,1110.9,505.8z
	 M2500,395.3c0-66.2-45.8-111-107.5-111c-62.1,0-107.5,45.3-107.5,111s45.8,111,107.5,111S2500,461.5,2500,395.3z M1761.9,506.3
	c30.6,0,60.1-8.2,85.1-24.4l-20.9-46.9c-19.4,10.7-41.8,16.3-63.7,16.3c-28.5,0-48.4-11.2-57.6-32.1h153.8c1.5-8.1,2.5-15.3,2.5-25
	c0-66.2-45.8-110-106.5-110c-61.6,0-106.5,44.8-106.5,111C1648.3,463.6,1692.6,506.3,1761.9,506.3L1761.9,506.3z M2150.6,506.3
	c62.1,0,107.5-45.3,107.5-111s-45.8-111-107.5-111c-62.1,0-107.5,45.3-107.5,111S2088.4,506.3,2150.6,506.3z M1244.9,501.8h54.5
	V194.1h-54.5V501.8z M1375.8,259.3c18.8,0,34.1-15.3,34.1-34.6s-14.8-34.6-34.1-34.6c-19.4,0-34.6,15.3-34.6,34.6
	S1355.9,259.3,1375.8,259.3z M439.1,0L408,295.5L355,46.4L188,81.5l52.5,249.1L0,381.6l42.8,198.7l423.3,90.2L562.9,454l45.8-436
	L439.1,0z M305.1,428.9c-8.7,8.1-19.9,7.1-32.6,3.1c-12.2-4.1-17.3-18.3-13.2-36.7c3.6-13.2,19.4-15.3,28-15.3c3.1,0,6.1,0.5,9.2,2
	c5.6,2.5,15.3,8.1,17.3,16.3C316.8,410.6,313.8,420.8,305.1,428.9z M427.9,442.2c-6.6,11.2-22.9,12.7-39.7,4.6
	c-11.2-5.6-11.2-18.8-9.7-27.5c0.5-4.6,2.5-9.2,5.6-12.7c4.1-5.1,10.7-11.7,17.8-11.7c12.7-0.5,22.9,5.1,29,15.3
	C437,420.3,434,431.5,427.9,442.2z"/>
</svg>
