<?xml version="1.0" encoding="utf-8"?>
<!-- Generator: Adobe Illustrator 25.4.1, SVG Export Plug-In . SVG Version: 6.00 Build 0)  -->
<svg version="1.1" id="Layer_1" xmlns="http://www.w3.org/2000/svg" xmlns:xlink="http://www.w3.org/1999/xlink" x="0px" y="0px"
	 viewBox="0 0 2279.3 530.1" style="enable-background:new 0 0 2279.3 530.1;" xml:space="preserve">
<style type="text/css">
	.st0{fill-rule:evenodd;clip-rule:evenodd;fill:#766E62;}
</style>
<path class="st0" d="M636,56.8h137.2L800.4,0H608.8c0,0-150.8-4.1-214.7,97.1L255.5,363.4c0,0-51.6,89.7-145.4,89.7H48.9L0,525.1
	h150.8c34,0,180.7-16.3,228.3-106l147.7-284.2C526.8,134.9,559.9,56.8,636,56.8L636,56.8z M2171.5,241.2l16.8-29.7h-125l-90.9,177.1
	c0,0-48.2,90.4-171.9,90.4c-79.5,0-129.1-12.9-84.9-84.2h87c32.6,0,130.5,10.2,158.3-74.1c29.9-90.3-26.5-110.7-123-110.7
	s-153.6,11.5-183.5,67.9l-40.8,82.2c0,0-48.9,104.6-109.4,104.6c0,0-51.6-0.7-29.2-42.1l132.5-253.4H2079l27.9-55.7h-473.6
	l54.3-97.8H1564l-54.4,97.8H1422l-31.3,55.7h95.1l-118.9,223.5c0,0-38.7,72.7-85.6,72.7c0,0-46.2-4.1-26.5-34.7l120.1-219.4H1244
	l-89.7,180.1c0,0-23.1,61.8-80.8,61.8c0,0-56.4-0.7-31.3-44.1l103.1-197.7H1015l-86.3,171.9c0,0-33.3,82.2-91,82.2
	c0,0-53.7-4.8-31.9-39.4l58.4-108.7c0,0,35.3-108-71.3-108c0,0-61.4-0.6-94.4,0.1c-90.5,1.9-181.4,13.2-181.4,71.9h128.2
	c0,0,13.8-29.2,59.3-29.2s47.9,25.5,44.7,34.8c-3.2,9.4-3.9,25.6-43.3,29c-39.4,3.4-140.6,6.8-182.8,21.8
	c-42.1,14.9-65.9,47.5-77.5,96.5c-11.5,48.9,18.4,94.4,104,94.4S691,485.9,691,485.9s8.1,42.8,89,42.8c80.8,0,130.4-55,130.4-55
	s14.3,55.7,91,55.7c76.8,0,137.2-47.5,142-56.4c0,0,13.6,57.1,87,57.1s136.6-60.5,136.6-60.5s-6.1,59.8,97.1,59.8
	c89.7,0,127.8-64.6,127.8-64.6s2,65.2,154.2,65.2c136.6,0,164.4-33.3,164.4-33.3l0.7,26.5H2024l103.9-201.1c0,0,17-36,58.4-29.2
	s44.8,17,44.8,17l48.2-83.6C2279.5,226.3,2256.4,184.1,2171.5,241.2z M1780.1,278.6c0,0,12.9-21,50.3-21s30.6,34,25.1,44.8
	c-5.4,10.9-23.8,42.6-56.4,42.6h-57.8L1780.1,278.6z M613.6,468.1c-77.5,0-53.7-71.3-7.1-89.6c53.1-20.8,106.3-10.3,106.3-10.3
	S691.1,468.1,613.6,468.1L613.6,468.1z"/>
</svg>
