<?xml version="1.0" encoding="utf-8"?>
<!-- Generator: Adobe Illustrator 25.4.1, SVG Export Plug-In . SVG Version: 6.00 Build 0)  -->
<svg version="1.1" id="Layer_1" xmlns="http://www.w3.org/2000/svg" xmlns:xlink="http://www.w3.org/1999/xlink" x="0px" y="0px"
	 viewBox="0 0 2450.7 395.9" style="enable-background:new 0 0 2450.7 395.9;" xml:space="preserve">
<style type="text/css">
	.st0{fill:#766E62;}
</style>
<g>
	<path class="st0" d="M1294.7,0h272.6v66.7h-199v94.7h193.4v64.4h-193.4v96.3h198.9v66.7h-272.6L1294.7,0L1294.7,0z M2320,395.8
		c83.6,0,130.7-40,130.7-95c0-39.1-27.9-68.4-86.2-81l-61.7-12.6c-35.8-6.7-47.1-13.3-47.1-26.7c0-17.3,17.3-27.9,49.1-27.9
		c34.5,0,60,9.3,66.7,41.2h72.3c-3.9-60-47.1-99.6-134.6-99.6c-75.6,0-128.7,31.2-128.7,91.7c0,41.8,29.2,69,92.2,82.3l69,15.9
		c27.2,5.3,34.5,12.7,34.5,23.9c0,17.9-20.5,29.2-53.8,29.2c-41.8,0-65.6-9.3-74.9-41.2h-72.7C2185.4,356,2229.8,395.8,2320,395.8
		L2320,395.8z M2153.8,388.6h-78.2c-49.1,0-76.3-30.5-76.3-69.1V166.7h-55v-65.1h55.3V19.9h72.7v81.7h81.6v65.1h-81.6v134.1
		c0,15.3,10.6,22.6,27.2,22.6h54.4L2153.8,388.6z M1840.3,101.8v25.9c-25.6-21.6-58.1-33.5-91.6-33.3
		c-83.3-1.8-152.2,64.3-153.9,147.6c-1.8,83.3,64.3,152.2,147.6,153.9c2.1,0,4.2,0,6.3,0c33.5,0.1,66-11.7,91.6-33.3v25.9h72.5
		V101.6L1840.3,101.8z M1754.7,332.9c-48.4,0.6-88.1-38.3-88.7-86.7c-0.6-48.4,38.3-88.1,86.7-88.7c48.4-0.6,88.1,38.3,88.7,86.7
		c0,0.4,0,0.7,0,1.1c0.4,47.9-38,87.1-85.9,87.5c-0.3,0-0.6,0-0.9,0L1754.7,332.9z"/>
	<path class="st0" d="M1132.9,155.5c-36.5,0-62.4,28.5-62.4,72.4v160.7h-55.7v-283h55v34.5c13.8-23.3,39.2-37.3,66.3-36.5h20v51.8
		L1132.9,155.5z M976.3,247.1c0-84.4-60-147.5-141.3-147.5c-80.4,0.5-145.1,66.2-144.6,146.6c0,0.3,0,0.6,0,0.9
		c0,84.3,65,148.1,149.9,148.1c48.1,0.9,93.6-21.6,122.1-60.4L922,305.2c-18.8,26.3-49.3,41.6-81.6,41.2
		c-46.9-0.2-86.5-34.6-93.4-81h229.5L976.3,247.1z M748.2,221.2c9.9-43.2,44.4-72.4,86.2-72.4s76.2,29.2,85.6,72.4L748.2,221.2
		L748.2,221.2z M514.1,99.6c-37.6,0-73.6,15.1-100,41.8V0h-55.8v388.6h55v-35.9c26.7,27,62.9,42.2,100.8,42.5
		c81.6,1.7,149.2-63,150.9-144.6S602,101.4,520.4,99.7c-2.1,0-4.2,0-6.3,0V99.6z M510.1,345.4c-54.1,0.3-98.2-43.4-98.4-97.5
		s43.4-98.2,97.5-98.4s98.2,43.4,98.4,97.5c0,0.3,0,0.5,0,0.8c0.1,53.7-43.4,97.3-97.1,97.4c-0.1,0-0.3,0-0.4,0L510.1,345.4
		L510.1,345.4z M153.3,342.7c53.8,0,95.5-41.2,95.5-103V0h57.7v388.6h-57v-36.7c-26.9,27.8-64.1,43.4-102.8,43.2
		C63.8,395.1,0,334.7,0,243V0h58.8v240.1C58.7,302.2,98.7,342.7,153.3,342.7z"/>
</g>
</svg>
