<svg xmlns="http://www.w3.org/2000/svg" viewBox="0 0 113.8754 112.1927">
  <g style="isolation: isolate">
    <g id="Layer_7" data-name="Layer 7">
      <circle cx="60.8117" cy="59.129" r="53.0637" fill="#c1ccd3" style="mix-blend-mode: multiply"/>
      <g>
        <circle cx="55.2465" cy="55.2465" r="55.2465" fill="#fff"/>
        <circle cx="55.2465" cy="55.2465" r="47.4985" fill="#ddebf2"/>
        <circle cx="55.24653" cy="55.2465" r="37.72931" fill="#9eb2bd"/>
        <path d="M55.2466,7.7479A47.50114,47.50114,0,0,0,29.454,95.136c2.1779-9.069,14.1179-53.9395,40.3546-68.9006,5.9126-3.3716,10.8545-6.0519,14.9778-8.1836A47.29384,47.29384,0,0,0,55.2466,7.7479Z" fill="#9eb2bd" opacity="0.28" style="mix-blend-mode: multiply"/>
        <path d="M84.3922,73.2396a8.76338,8.76338,0,0,0-3.0555-3.7102A13.03029,13.03029,0,0,0,77.19,68.0016a3.87245,3.87245,0,0,0-2.7645.8003l-2.8373-5.6745,1.2367-1.746s.873-3.8558,1.0913-5.7473a25.28755,25.28755,0,0,0-.2445-4.867,6.79992,6.79992,0,0,1-.4811-1.8686.28712.28712,0,0,1,.011-.1107,9.07734,9.07734,0,0,0-.6676-.7197,9.98272,9.98272,0,0,0-5.0198-2.1097,14.10393,14.10393,0,0,0-5.3835-.1455c-2.8373.5092-3.6375,1.9642-3.6375,1.9642l-1.0912.1455a4.40887,4.40887,0,0,0-1.5278.9458,10.37519,10.37519,0,0,0-1.3094,3.0555L73.9162,84.8796l1.2368.291.8002.8003c.8002.8002,3.0555.582,3.0555.582a22.68222,22.68222,0,0,0,3.8558-1.0913c1.5277-.6547,1.746-3.2737,1.746-3.2737a17.09337,17.09337,0,0,0,.5819-2.2553,8.31379,8.31379,0,0,0-.7274-3.783A5.40454,5.40454,0,0,0,84.3922,73.2396Z" fill="#9eb2bd" style="mix-blend-mode: multiply"/>
        <path d="M93.3405,59.2716l-.1455-1.6005.3637-1.3822a7.46965,7.46965,0,0,0-.2182-3.201,6.60223,6.60223,0,0,0-2.9101-3.7103,6.53673,6.53673,0,0,0-4.074-.2182,3.45261,3.45261,0,0,0-1.0912-.2183,2.75753,2.75753,0,0,0-1.6005.5093s-2.8372-.7275-4.1467.0727a46.37636,46.37636,0,0,0-4.0012,3.1283s-.0877-.2127-.2502-.5544a5.12157,5.12157,0,0,0-.2682,1.3014l.0818.1987-.2183,1.746a8.35146,8.35146,0,0,0-.4364,1.8188,6.571,6.571,0,0,0,.2182,2.328s-.291.2182-.291,1.0185c0,.8002.4365,1.0185.4365,1.0185a10.82463,10.82463,0,0,0-.0728,3.0555c.2183,1.455,2.4008,2.2552,3.201,2.5462a7.4231,7.4231,0,0,0,2.6919-.0727l2.2552.8002,3.6375.4365a10.59584,10.59584,0,0,0,3.8557-1.6732c2.2553-1.455,2.1825-4.5105,2.1825-4.5105s.3638-.5093.9457-1.3823A1.0547,1.0547,0,0,0,93.3405,59.2716Z" fill="#9eb2bd" style="mix-blend-mode: multiply"/>
        <path d="M70.226,42.5507a3.03205,3.03205,0,0,0,.291.984,7.1957,7.1957,0,0,1,.7222,1.4116c.0556.2287.0619.4671.1166.6959a2.84448,2.84448,0,0,0,1.3061,1.5757,8.30607,8.30607,0,0,1,1.6849,1.2354,7.2971,7.2971,0,0,0,.7063.8166,2.51166,2.51166,0,0,0,1.2132.4809,10.90659,10.90659,0,0,0,5.7409-1.0589,30.93312,30.93312,0,0,1,3.7473-1.37,5.33358,5.33358,0,0,1,1.8566-.27,4.77314,4.77314,0,0,0,1.9471.1006,2.24191,2.24191,0,0,0,1.5883-2.3112,6.14175,6.14175,0,0,0-.7006-1.9792,1.41808,1.41808,0,0,1-.0843-.6113,9.43664,9.43664,0,0,0-.9318-3.9991,12.08835,12.08835,0,0,0-1.0201-1.7909c-.3087-.4405-.7567-.7002-.9165-1.2481-.1253-.4295-.1383-.8883-.2914-1.3087a3.495,3.495,0,0,0-1.1024-1.3976,10.92356,10.92356,0,0,0-1.5127-1.0749,4.443,4.443,0,0,0-1.187-.5228,4.24455,4.24455,0,0,0-1.3735-.0648,8.9459,8.9459,0,0,0-4.5551,1.7418,3.156,3.156,0,0,0-1.0668,1.2056,1.04052,1.04052,0,0,1-.1782.3289.83838.83838,0,0,1-.4576.1882,6.713,6.713,0,0,0-3.3119,1.4068,4.56136,4.56136,0,0,0-1.3202,2.3731,8.60655,8.60655,0,0,1-.5482,2.576A3.12324,3.12324,0,0,0,70.226,42.5507Z" fill="#9eb2bd" style="mix-blend-mode: multiply"/>
        <path d="M68.7784,41.4649a3.03088,3.03088,0,0,0,.291.9841,7.19246,7.19246,0,0,1,.7221,1.4116c.0556.2286.0619.467.1167.6959a2.84387,2.84387,0,0,0,1.3061,1.5756,8.31541,8.31541,0,0,1,1.6849,1.2354,7.2779,7.2779,0,0,0,.7063.8166,2.51166,2.51166,0,0,0,1.2132.4809,10.90633,10.90633,0,0,0,5.7408-1.0588,30.93366,30.93366,0,0,1,3.7473-1.3701,5.33358,5.33358,0,0,1,1.8566-.27,4.77334,4.77334,0,0,0,1.9471.1007,2.24181,2.24181,0,0,0,1.5883-2.3113,6.14259,6.14259,0,0,0-.7006-1.9792,1.41586,1.41586,0,0,1-.0842-.6112,9.43629,9.43629,0,0,0-.9318-3.9991,12.07494,12.07494,0,0,0-1.0202-1.7909c-.3086-.4406-.7566-.7002-.9164-1.2482-.1253-.4295-.1383-.8882-.2915-1.3086a3.49418,3.49418,0,0,0-1.1023-1.3977,10.92288,10.92288,0,0,0-1.5127-1.0748,4.43732,4.43732,0,0,0-1.1871-.5228,4.24676,4.24676,0,0,0-1.3734-.0649A8.94637,8.94637,0,0,0,76.0234,31.5a3.15543,3.15543,0,0,0-1.0667,1.2055,1.04233,1.04233,0,0,1-.1782.3289.83751.83751,0,0,1-.4577.1882,6.7139,6.7139,0,0,0-3.3119,1.4068,4.56218,4.56218,0,0,0-1.3201,2.3732,8.603,8.603,0,0,1-.5483,2.5759A3.12274,3.12274,0,0,0,68.7784,41.4649Z" fill="#f4fbfe"/>
        <path d="M83.8102,71.9301a8.76411,8.76411,0,0,0-3.0555-3.7102,13.03117,13.03117,0,0,0-4.1467-1.5278,3.87278,3.87278,0,0,0-2.7646.8003l-2.8372-5.6745,1.2368-1.746s.873-3.8558,1.0912-5.7473a30.88948,30.88948,0,0,0-.3637-5.7472l.0053.0129a6.57045,6.57045,0,0,1-.2108-.9313,9.40011,9.40011,0,0,0-.813-.9004,9.9824,9.9824,0,0,0-5.0198-2.1097,14.10417,14.10417,0,0,0-5.3835-.1455c-2.8372.5092-3.6375,1.9642-3.6375,1.9642l-1.0912.1455a4.40794,4.40794,0,0,0-1.5278.9458,10.37892,10.37892,0,0,0-1.3095,3.0555L73.3342,83.5701l1.2368.291.8002.8003c.8003.8002,3.0555.582,3.0555.582a22.6796,22.6796,0,0,0,3.8557-1.0913c1.5278-.6547,1.7461-3.2737,1.7461-3.2737a17.12109,17.12109,0,0,0,.582-2.2553,8.31478,8.31478,0,0,0-.7275-3.783A5.40563,5.40563,0,0,0,83.8102,71.9301Z" fill="#f4fbfe"/>
        <g>
          <path d="M85.9804,35.6967a4.63238,4.63238,0,0,0-2.4541-1.7651.3596.3596,0,0,0,.0739-.31,2.87413,2.87413,0,0,0-3.9117-2.0955,6.08272,6.08272,0,0,0-1.9791,1.5818c-2.2928,1.0104-4.4278,4.0289-4.2101,6.4744.0031.0354.0581.0616.076.0206a18.336,18.336,0,0,1,1.644-3.5957,9.228,9.228,0,0,1,1.6892-1.742,2.8503,2.8503,0,0,0-.3951,1.948.04781.04781,0,0,0,.0914,0c.0356-.1037.0745-.2037.1124-.3048a.11585.11585,0,0,0,.1137-.0022c3.0932-1.7221,7.1973-2.4066,8.9797,1.1966a8.4755,8.4755,0,0,1-.7321,8.4985c-.2687.4128.4089.7723.6909.3754A9.06753,9.06753,0,0,0,85.9804,35.6967Zm-8.6157-1.1646a3.18394,3.18394,0,0,1,2.0311-.7273,2.14476,2.14476,0,0,1,.5945.0984,7.36879,7.36879,0,0,0-3.1411,1.6708A8.495,8.495,0,0,1,77.3647,34.5321Zm4.0804-.852a2.60414,2.60414,0,0,0-2.2413-.4415,3.59463,3.59463,0,0,0-1.3675.5857,7.17551,7.17551,0,0,1,.9412-1.026c1.4472-1.2965,3.582-1.1094,4.0929.9726A6.29542,6.29542,0,0,0,81.4451,33.6801Z" fill="#b7b3b5"/>
          <path d="M89.5703,43.1899a2.12833,2.12833,0,0,1-.4897,1.8683,1.86425,1.86425,0,0,1-.4364.2366c-.1028.0431-.2305.0814-.3174.0117a.19161.19161,0,0,1-.0614-.1038c.0871-.3353.1391-.6822.2087-.9627a12.899,12.899,0,0,0,.3496-4.7788,8.19,8.19,0,0,0-2.6787-5.2311.17216.17216,0,0,0,.061-.1293c.0562-2.9575-3.0832-4.6976-5.7237-4.5282a7.58327,7.58327,0,0,0-5.8951,3.4332c-2.8348-.2133-5.4216,2.9024-5.3502,5.6114a4.51076,4.51076,0,0,0-.497,3.7242,4.64852,4.64852,0,0,0,.7518,1.3074,3.36418,3.36418,0,0,0,2.3535,2.963c.0586.0131.4329.7951.5341.9062,1.1894,1.3059,3.951,1.6782,5.5813,1.2071,1.8432-.5327,3.5491-1.4665,5.4169-1.9225a7.275,7.275,0,0,1,2.3423-.3715,6.892,6.892,0,0,0,2.4399-.0031,2.381,2.381,0,0,0,1.4882-1.2842A2.2103,2.2103,0,0,0,89.5703,43.1899ZM79.0196,47.7298c-.0169.0049-.0334.0117-.0505.0166a7.79027,7.79027,0,0,0-1.5713.3076c.3605-.495,1.2192-.6284,1.7385-.9607a10.74169,10.74169,0,0,0,1.8078-1.4523,8.94567,8.94567,0,0,0,1.3834-1.7602,6.88017,6.88017,0,0,0,.4962-1.0145c.0829-.2144.1403-.8424.2864-.9865.0152-.015.0296-.0305.0445-.0457l-.0013.0489a.0105.0105,0,0,0,.021,0l-.0018-.0684a3.7477,3.7477,0,0,0-1.5383-6.1283,4.22628,4.22628,0,0,1,.9124.1436c.0225.0061.043.0143.0651.0208a4.5329,4.5329,0,0,1,1.8454,3.1262,8.12832,8.12832,0,0,1-.4069,3.5393,9.32983,9.32983,0,0,1-4.956,5.154A.21722.21722,0,0,0,79.0196,47.7298Zm2.7643-11.4112c2.1599,1.1224,2.7321,4.0476.5668,5.512a4.69239,4.69239,0,0,0,.8073-1.9552A4.16438,4.16438,0,0,0,81.7839,36.3186Zm.5555,10.1686c-.2129.0711-.43.1303-.6487.1802-.0469.0108-.0903.0226-.1338.0344a8.85993,8.85993,0,0,0,3.1736-5.0881c.2469-1.201.3478-3.4506-.5219-4.7768a5.07337,5.07337,0,0,1,1.1565,2.5343,6.95,6.95,0,0,1-.4936,4.7165A9.00416,9.00416,0,0,1,82.3394,46.4872Zm4.2771-.634c-.3372-.0903-.3605-.4662-.3105-.7461a4.68084,4.68084,0,0,1,.2525-.906,6.63522,6.63522,0,0,1-1.6369,1.4052c-.1332.0809-.3218.151-.4288.0377-.2574-.2726.4214-.8692.555-1.0569a4.454,4.454,0,0,0,.6268-1.2277,8.50882,8.50882,0,0,0-.3604-5.3579c-1.208-2.8659-4.9376-3.2865-7.262-1.2684-.0151.0131.0046.0374.0224.0269a7.4927,7.4927,0,0,1,2.603-1.0175.19322.19322,0,0,0,.0234.2702c1.3343,1.003,2.2718,2.3843,1.6966,4.1291-.4211,1.2776-1.4802,1.6121-2.2921,2.4941-2.2388.4031-5.2858.1661-5.0187-2.4033a12.382,12.382,0,0,1,.8705-1.279,2.04855,2.04855,0,0,0,.264.6047,1.64251,1.64251,0,0,0,1.1651.6974.03159.03159,0,0,0,.0167-.0609,1.77892,1.77892,0,0,1-.8425-.8904,1.60446,1.60446,0,0,1-.151-.5265.62382.62382,0,0,0-.0666-.3315c.0795-.1043.1596-.2097.2406-.3177.06-.0799-.0648-.1625-.1323-.102-1.2104,1.0843-2.5405,2.7171-2.4006,4.4477a4.408,4.408,0,0,1-1.2169-3.5547,6.04065,6.04065,0,0,1,2.1153-4.0391.193.193,0,0,0-.2328-.3018,5.49642,5.49642,0,0,0-2.3221,5.6317c.2761,1.7371,1.3693,3.6718,3.4003,3.0998a.05816.05816,0,0,0-.0153-.1137,3.06794,3.06794,0,0,1-1.4639-.5164.13028.13028,0,0,0,.0244-.064,5.40765,5.40765,0,0,1,.3746-1.6216c-.0535,1.7867,2.4467,2.2544,4.6331,2.1396a8.49792,8.49792,0,0,1-3.458,3.5596.01588.01588,0,0,0,.0121.0289,6.10768,6.10768,0,0,0,3.8853-3.2431.21523.21523,0,0,0,.2133-.2067l-.0028-.1902c.0923-.0099.183-.0213.2728-.0332l.0098.0022a1.72567,1.72567,0,0,0,.8733-.1587,4.67951,4.67951,0,0,0,.9464-.3066,3.84923,3.84923,0,0,0,.6087-.3667,11.87617,11.87617,0,0,1-3.4,4.2054c-2.0324,1.4296-5.2248,2.5086-6.933.2434,1.6615.0127,3.8946-1.5055,4.915-2.5871a.02781.02781,0,0,0-.0335-.0435c-1.0712.4522-2.0244,1.1725-3.088,1.6625a3.44556,3.44556,0,0,1-2.1069.5125.172.172,0,0,0-.1511-.034,2.45305,2.45305,0,0,1-.5236-.2075c-.3098-.1645-1.5949-1.2506-1.1691-1.7165.1337-.1462.3707-.0357.5466.056a1.99672,1.99672,0,0,0,1.4013.1624,2.89139,2.89139,0,0,1-2.435-1.3436,4.2761,4.2761,0,0,1-.6523-1.875,3.161,3.161,0,0,1-.0143-.8967c.0359-.2073.347-.6756.297-.8618a3.43783,3.43783,0,0,0,1.7041,2.1318c.0286.0163.0709-.0186.0486-.0486a5.74835,5.74835,0,0,1-1.3089-3.0425l.1068-.2162a.21113.21113,0,0,0-.1074-.2766,4.313,4.313,0,0,1,.3225-1.3405,5.0003,5.0003,0,0,1,4.2144-3.2031,4.67746,4.67746,0,0,0-.2901.8976c-.016.077.091.1311.1322.0558q.2925-.5334.6233-1.0158a.20661.20661,0,0,0,.0943-.1382,7.31686,7.31686,0,0,1,4.4932-3.0955,5.05432,5.05432,0,0,1,6.3966,3.7503,6.203,6.203,0,0,0-.7312-.4571c-.0181-.0096-.0371.0129-.0222.0268a9.96744,9.96744,0,0,1,3.1857,5.2458,10.75883,10.75883,0,0,1,.1486,3.1968,15.99164,15.99164,0,0,1-.5229,3.0426,3.71971,3.71971,0,0,1-.5654.6002A.78306.78306,0,0,1,86.6165,45.8532Zm-5.7333-10.139a.24182.24182,0,0,0-.0105.0218c-.0122-.0052-.0236-.0117-.0359-.0168Z" fill="#b7b3b5"/>
          <path d="M77.3763,38.7936c-.0324-.0057-.0595.0417-.0244.0577a3.24248,3.24248,0,0,0,1.4572.3607,2.86637,2.86637,0,0,0,.6731-.0856,4.95784,4.95784,0,0,1-.7496,2.3307c-.029.0432.0328.083.0682.0526a3.71065,3.71065,0,0,0,1.1944-2.7071l.003-.0033a.11392.11392,0,0,0-.0048-.1264,2.83612,2.83612,0,0,0-.0987-.6523c-.1472-.5255-.8969-1.7746-1.5954-1.3387a.2607.2607,0,0,0,0,.4461l.0663.0346a.24867.24867,0,0,0,.3013-.0772c.0183.0416.0352.0808.0602.1331a1.59331,1.59331,0,0,1,.5588.646,1.5203,1.5203,0,0,1,.1812.6721c.0041.0304.0036.0639.0066.0951-.2028.0409-.4057.1106-.6089.1402A4.67327,4.67327,0,0,1,77.3763,38.7936Z" fill="#b7b3b5"/>
        </g>
        <g>
          <path d="M92.7584,57.9621l-.1454-1.6005.3637-1.3822a7.4686,7.4686,0,0,0-.2183-3.201,6.60181,6.60181,0,0,0-2.9099-3.7103,6.53669,6.53669,0,0,0-4.074-.2182,3.454,3.454,0,0,0-1.0913-.2183,2.75753,2.75753,0,0,0-1.6005.5093s-2.8373-.7275-4.1468.0727a22.59235,22.59235,0,0,0-2.4077,1.7959c-.7076.5749-1.6227,1.1321-1.8885,2.0439a12.52489,12.52489,0,0,0-.3597,1.9802,8.35071,8.35071,0,0,0-.4366,1.8188,6.56987,6.56987,0,0,0,.2183,2.328s-.291.2182-.291,1.0185c0,.8002.4365,1.0185.4365,1.0185a10.81814,10.81814,0,0,0-.0727,3.0555c.2182,1.455,2.4008,2.2552,3.201,2.5462a7.42207,7.42207,0,0,0,2.6917-.0727l2.2552.8002,3.6376.4365a10.59584,10.59584,0,0,0,3.8557-1.6732c2.2553-1.455,2.1825-4.5105,2.1825-4.5105s.3638-.5093.9458-1.3823A1.05485,1.05485,0,0,0,92.7584,57.9621Z" fill="#f4fbfe"/>
          <path d="M80.3305,57.0241c-.8532-.7162-2.2543.0614-3.0334.5607a3.72915,3.72915,0,0,0-1.9297,2.8556c.0073.1723.2693.2777.3531.0956a5.90961,5.90961,0,0,1,1.4038-2.2872,3.73539,3.73539,0,0,1,3.1474-1.1235c.0542.0121.1083-.0596.0588-.1012Z" fill="#b7b3b5"/>
          <path d="M77.9247,56.1642c2.1419.6879,5.3016,1.6431,5.9289,4.1486a.111.111,0,0,0,.2171-.0294c-.0108-1.077-1.0592-1.9284-1.8676-2.518a11.55629,11.55629,0,0,0-4.2721-1.6241.01188.01188,0,0,0-.0063.0229Z" fill="#b7b3b5"/>
          <path d="M80.2223,59.1592a9.66378,9.66378,0,0,1-3.0322.9252c-.4657.0792-.9322.1674-1.3993.2377q-1.3827.46455-1.9199-1.3271.12435-.3879.2594-.7723a.12293.12293,0,0,0-.2237-.0943c-.5661,1.0528-.5957,2.3818.857,2.573a9.08892,9.08892,0,0,0,2.8853-.4448,9.21417,9.21417,0,0,0,2.6199-1.0178c.0518-.0291.0057-.1075-.0465-.0796Z" fill="#b7b3b5"/>
          <path d="M74.2489,58.58c-.8467-3.171.6282-5.6533,3.2624-7.3666,2.7546-1.7916,5.3252-1.7658,8.2736-.4835,5.7879,2.5171,5.8658,9.0016,2.0765,13.3726-.1694.1953.1087.4803.2866.2866a9.78443,9.78443,0,0,0,2.7613-7.9811,7.85906,7.85906,0,0,0-5.2282-6.1539,8.37622,8.37622,0,0,0-9.0524,1.1462c-2.3547,1.7394-3.5541,4.3683-2.5473,7.2258a.08692.08692,0,0,0,.1675-.0461Z" fill="#b7b3b5"/>
          <path d="M87.3614,55.2003a14.43468,14.43468,0,0,1,.8323,5.1873,18.112,18.112,0,0,1-1.2641,4.8838c-.0599.1705.1906.2601.2814.1186,1.9259-3.0047,1.5402-7.0618.2418-10.2149-.0225-.0546-.1091-.035-.0914.0252Z" fill="#b7b3b5"/>
          <path d="M88.9387,52.7332a10.86357,10.86357,0,0,1-1.0832,9.5142c-.1399.2264.2039.4181.3522.2058a9.825,9.825,0,0,0,.8127-9.7544c-.0221-.0454-.0974-.0137-.0817.0344Z" fill="#b7b3b5"/>
          <path d="M89.8836,54.256a3.9218,3.9218,0,0,1,2.7406,3.4879.15275.15275,0,0,0,.3053,0,3.75676,3.75676,0,0,0-3.0222-3.6636c-.1095-.011-.1081.1409-.0237.1757Z" fill="#b7b3b5"/>
          <path d="M91.7816,57.1791c1.5073.9117.7475,2.4104-.1225,3.4786a6.72914,6.72914,0,0,1-2.1328,1.5589.15647.15647,0,0,0,.0783.2894c1.9741-.1175,5.3312-4.6907,2.2226-5.4352a.05952.05952,0,0,0-.0456.1083Z" fill="#b7b3b5"/>
          <path d="M91.8984,61.0158a6.34147,6.34147,0,0,1-4.1705,5.2384,10.0141,10.0141,0,0,1-6.4654-.3981,1.60767,1.60767,0,0,0-1.4945-.0824,2.05679,2.05679,0,0,0,.8566.3827c2.731.7437,5.7916,1.5284,8.4263-.0213a6.264,6.264,0,0,0,3.0159-5.1193C92.0678,60.904,91.9122,60.9119,91.8984,61.0158Z" fill="#b7b3b5"/>
          <path d="M80.9603,47.9244c4.7587.5694,8.8706,2.213,10.3872,7.1341a.1765.1765,0,0,0,.3401-.0937c-.8587-4.7951-6.232-7.4544-10.7273-7.1194a.03953.03953,0,0,0,0,.079Z" fill="#b7b3b5"/>
          <path d="M83.0029,48.0053a8.32474,8.32474,0,0,1,5.2599.9195c1.8492,1.1161,2.1786,2.96,2.898,4.8373a.11329.11329,0,0,0,.2183-.0601,6.41036,6.41036,0,0,0-8.3863-5.7717c-.039.0124-.0347.0791.0101.075Z" fill="#b7b3b5"/>
          <path d="M85.4103,47.7487A6.84534,6.84534,0,0,1,91.2051,49.44a6.223,6.223,0,0,1,1.1044,7.0088c-.1078.2398.2445.4508.3567.2086,2.1483-4.6386-1.9295-10.7706-7.2682-8.9992-.0464.0154-.0422.0959.0123.0905Z" fill="#b7b3b5"/>
          <path d="M77.7671,49.183a5.62165,5.62165,0,0,0-2.694,2.1077,4.26426,4.26426,0,0,0-.9116,3.2132.13621.13621,0,0,0,.2662-.0361,5.86558,5.86558,0,0,1,3.4387-5.0491c.1305-.0621.0379-.2874-.0993-.2357Z" fill="#b7b3b5"/>
          <path d="M74.6588,58.9243c.6884-3.7634,4.5251-6.4816,8.1409-4.2085,3.352,2.1072,3.2435,6.3764,3.4552,9.8405a.17906.17906,0,0,0,.3579,0c.1767-3.8615-.439-9.3436-4.7903-10.7587a5.51117,5.51117,0,0,0-7.2387,5.1165c.0004.0416.067.0538.075.0102Z" fill="#b7b3b5"/>
          <path d="M79.3785,55.8029a5.21614,5.21614,0,0,1,4.7792,1.6016,9.55914,9.55914,0,0,1,2.0789,3.7809.127.127,0,0,0,.2482-.0335c-.0264-3.1923-3.9147-6.8498-7.1246-5.3923-.0252.0115-.0068.0492.0183.0433Z" fill="#b7b3b5"/>
          <path d="M75.662,54.2907c2.2061-1.6602,4.5055-3.0243,7.3643-3.0368a8.37627,8.37627,0,0,1,7.1253,3.9674.21732.21732,0,0,0,.375-.2192c-2.971-5.553-11.1343-5.24-14.9092-.7692-.0249.0293.0087.0848.0446.0578Z" fill="#b7b3b5"/>
          <path d="M86.6363,61.466c.3358-3.5737.0636-7.4556-2.2744-10.3412-.2045-.2525-.5615.107-.3573.3573,2.378,2.914,2.2182,6.4462,2.4474,9.9839a.09221.09221,0,0,0,.1843,0Z" fill="#b7b3b5"/>
          <path d="M74.226,60.4903c-1.1055,3.931,2.2035,6.0452,5.8458,5.4404a6.49332,6.49332,0,0,0,4.1195-2.5749,7.39165,7.39165,0,0,0,1.4085-4.8641.24924.24924,0,0,0-.1734-.1734l-.1607-.0567c-.2516-.0889-.411.3015-.1805.4281.5419.2974-.7825,3.5542-1.0226,3.9646a6.023,6.023,0,0,1-3.5888,2.6924,6.65147,6.65147,0,0,1-4.692-.4834c-1.5965-.9535-1.533-2.7422-1.3904-4.3506.0086-.0965-.1403-.1116-.1654-.0224Z" fill="#b7b3b5"/>
          <path d="M74.8017,60.6254c-.6453,3.8066,4.5481,4.235,6.8451,2.6243a.15076.15076,0,0,0-.1156-.2742,10.81039,10.81039,0,0,1-3.6207.7393,3.07631,3.07631,0,0,1-2.9821-3.0723c.0014-.0708-.1143-.0902-.1267-.0171Z" fill="#b7b3b5"/>
          <path d="M80.7573,57.2526a4.44318,4.44318,0,0,0-.1593,4.1632c.5759,1.3024,1.4168,2.4826,2.9138,2.6676.2576.0319.3082-.3903.0609-.4497a3.83832,3.83832,0,0,1-2.593-2.441,4.52386,4.52386,0,0,1-.0204-3.855.111.111,0,0,0-.202-.0851Z" fill="#b7b3b5"/>
          <path d="M81.4943,57.4428a2.37268,2.37268,0,0,0,.6598,2.8264c.7016.5787,2.28,1.0827,3.1226.5977a.16838.16838,0,0,0,0-.2886,2.307,2.307,0,0,0-.9494-.1389,3.689,3.689,0,0,1-1.5055-.3557,2.47356,2.47356,0,0,1-1.1975-2.6057.07032.07032,0,0,0-.13-.0352Z" fill="#b7b3b5"/>
        </g>
        <path d="M77.6123,66.7186c1.6724.8375,3.3366,1.4544,4.593,2.9227a7.31181,7.31181,0,0,1,1.6607,5.336c-.0215.2957.4392.2944.4606,0,.3158-4.3434-2.7275-7.2092-6.7001-8.2924-.0197-.0053-.0334.0241-.0142.0337Z" fill="#b7b3b5"/>
        <path d="M79.7548,67.8243a11.86151,11.86151,0,0,1,1.8693,2.2428,9.13111,9.13111,0,0,1,.6498,1.6886q.1014.3624.1848.7293a.57219.57219,0,0,0,.4273.6206c-.0784-.1005-.2182-.0433-.279.036l-.0264.0345a.21144.21144,0,0,0,.0748.2854l.0495.0329a.235.235,0,0,0,.3428-.1395c.2107-.9554-.5141-2.5073-.9783-3.3323a4.826,4.826,0,0,0-2.2941-2.2335c-.0214-.0072-.0332.0205-.0205.0352Z" fill="#b7b3b5"/>
        <path d="M78.0103,67.0211c1.3233,1.3662,2.9714,3.551,2.8354,5.5719-.0176.2613.3686.2939.442.0598.3103-.9904-.3248-2.2081-.8013-3.0661a7.92139,7.92139,0,0,0-2.4234-2.6338c-.0415-.0288-.0861.0338-.0527.0682Z" fill="#b7b3b5"/>
        <path d="M74.1687,67.3307a4.19111,4.19111,0,0,1,1.9935-.4128,2.26781,2.26781,0,0,1,2.0979,1.2807,11.32531,11.32531,0,0,1,1.0548,3.9296c.0411.2323.3579.1471.38-.0514a6.38229,6.38229,0,0,0-1.8216-5.1,3.21449,3.21449,0,0,0-3.7732.265c-.05.0449.0136.1164.0686.0889Z" fill="#b7b3b5"/>
        <path d="M83.0149,81.84c2.2077-1.5566,2.2848-5.0022.9823-7.1865-1.7824-2.9889-5.5456-3.016-8.596-2.6251q.0684.2523.1367.5045l.2959-.1437a.19623.19623,0,0,0-.0983-.3629l-.3343.0021c-.3571.0023-.337.5849,0,.5415,2.5163-.3239,5.4694-.4952,7.4385,1.4289a5.75991,5.75991,0,0,1,.113,7.7606c-.0378.0407.0125.1157.0622.0806Z" fill="#b7b3b5"/>
        <path d="M74.5184,83.7699c1.6054,2.1932,4.6136,1.8477,6.882,1.0536.152-.0532.1424-.3245-.0409-.3024-1.0917.1315-2.1356.5674-3.2432.6034a5.06363,5.06363,0,0,1-3.5504-1.3913c-.0242-.0201-.0694.0068-.0475.0367Z" fill="#b7b3b5"/>
        <path d="M76.19,83.8335c1.6582.7037,4.2851,1.5554,6.0566.7831,1.6588-.7233,2.2192-2.8626,2.178-4.4973a.1917.1917,0,0,0-.3748-.0507c-.4778,1.7881-.5155,3.8654-2.8027,4.2282a13.8211,13.8211,0,0,1-5.0155-.5619c-.0563-.0131-.1004.0736-.0416.0986Z" fill="#b7b3b5"/>
        <path d="M74.0564,83.6444c5.7195,1.5,10.6241-4.2466,8.8904-9.7062a.21464.21464,0,0,0-.4136.114c1.2208,5.5534-2.7661,10.0524-8.4558,9.4371-.0896-.0097-.1053.1329-.021.1551Z" fill="#b7b3b5"/>
        <path d="M80.3718,81.6588c1.6683-1.6041,2.2886-5.8287,1.0179-7.8053-.1237-.1924-.4631-.0741-.3849.1622a9.73379,9.73379,0,0,1-.6929,7.5968.03833.03833,0,0,0,.0599.0463Z" fill="#b7b3b5"/>
        <path d="M76.8953,72.5647c2.2451.2656,4.305.7577,5.7399,2.6433a.16336.16336,0,0,0,.3016-.0816c.0247-1.0874-1.4498-1.8081-2.2893-2.1773a6.01736,6.01736,0,0,0-3.761-.449c-.0389.0092-.0255.0606.0088.0646Z" fill="#b7b3b5"/>
        <path d="M79.5111,81.0509a7.93588,7.93588,0,0,0-.2764-5.6078,3.63384,3.63384,0,0,0-3.7032-2.6789c-.3227-.0251-.3207.4772,0,.5027,3.8357.3043,4.1152,4.7578,3.8788,7.7704-.0047.0605.0829.0655.1008.0136Z" fill="#b7b3b5"/>
        <path d="M79.9855,78.5287a23.404,23.404,0,0,0,.9967-2.1659c.1386-.4173.1813-.8581.3125-1.2772.1277-.408.338-.7768.4923-1.1737.0615-.1583-.1707-.2793-.2793-.1626a4.47006,4.47006,0,0,0-.8382,2.1897,25.39131,25.39131,0,0,0-.8532,2.5438c-.0116.0883.1334.1255.1692.0459Z" fill="#b7b3b5"/>
        <path d="M74.815,81.6556c1.7449.6439,4.0286,1.1258,5.7682.2174a.21279.21279,0,0,0-.1632-.3872c-1.9596.5548-3.5734.2333-5.5491-.0332a.10535.10535,0,0,0-.0559.203Z" fill="#b7b3b5"/>
        <path d="M74.9799,80.6859c1.235.4938,3.7241.3371,4.555-.8414.0813-.1153-.0527-.2297-.1635-.2126-.692.1069-1.303.5641-2.005.72a10.49439,10.49439,0,0,1-2.3571.1168.11116.11116,0,0,0-.0294.2172Z" fill="#b7b3b5"/>
        <path d="M74.9873,79.8569c1.9664.5318,4.3008-2.6345,3.9633-4.4132-.0421-.2221-.3281-.1654-.3958,0a10.79888,10.79888,0,0,1-.9628,2.4589,4.32482,4.32482,0,0,1-2.6047,1.8147.073.073,0,0,0,0,.1396Z" fill="#b7b3b5"/>
        <path d="M81.0366,83.8941a.238.238,0,0,0,.1719-.0034.03439.03439,0,0,0,0-.0591c-.0707-.0303-.0917-.0167-.1719-.0035a.03448.03448,0,0,0,0,.066Z" fill="#b7b3b5"/>
        <path d="M54.261,50.1973a12.9314,12.9314,0,0,1,.6489-1.5694,5.3076,5.3076,0,0,1,1.3967-1.4604c.1408-.1075.0184-.3423-.1435-.2454a3.96974,3.96974,0,0,0-1.956,3.2606c.0025.025.041.0438.0539.0146Z" fill="#a6bfcc"/>
        <path d="M65.2022,46.6683a14.404,14.404,0,0,1-4.0957.1412,19.6074,19.6074,0,0,0-3.2269-.3659c-1.2047.0001-2.6702.1075-2.8102,1.5484-.0181.1863.2441.1892.3024.0409.759-1.9328,4.1889-1.0717,5.6906-.898a8.64537,8.64537,0,0,0,4.1426-.4459c.0101-.0039.01-.0221-.0028-.0207Z" fill="#b7b3b5"/>
        <path d="M73.7454,51.2622a8.20032,8.20032,0,0,0-.6906-3.1426,6.9492,6.9492,0,0,0-3.7088-3.0939,18.01606,18.01606,0,0,0-4.6044-.8406,10.62591,10.62591,0,0,0-4.1657.2927,6.39,6.39,0,0,0-1.6483.7766c-.4617.3089-1.1394,1.2446-1.6992,1.1864a.05037.05037,0,0,0-.0253.0932c.3941.1838.2272.0947.6642-.0211.7114-.1884,1.5455-1.2031,2.3277-1.4976a8.0911,8.0911,0,0,1,2.2628-.4611,16.879,16.879,0,0,1,4.751.281,8.70248,8.70248,0,0,1,5.4993,4.1143,5.59537,5.59537,0,0,1,.3369,2.5471,24.3802,24.3802,0,0,1-.0143,3.1383,13.36717,13.36717,0,0,1-.3063,3.2923A16.70443,16.70443,0,0,0,73.7454,51.2622Z" fill="#b7b3b5"/>
        <path d="M73.2869,54.3048c-.9319,2.1477-.4557,5.303-2.0382,7.15-.0732.0854-.0339.2633.1033.2493.7252-.074.9633-1.5439,1.1014-2.0872.4359-1.7142.6059-3.5453.8792-5.2929.004-.0252-.0334-.0476-.0457-.0192Z" fill="#b7b3b5"/>
        <path d="M71.4602,48.7145c-.1118,1.7434.0708,3.4914-.0146,5.2382a14.56149,14.56149,0,0,1-1.6242,5.845c-.0692.1469.1151.322.2398.185,2.5061-2.7547,1.9626-7.9092,1.4714-11.278-.0063-.0431-.0699-.0291-.0724.0098Z" fill="#b7b3b5"/>
        <path d="M62.188,46.2349c3.438.766,6.9172,1.8221,9.0592,4.8169a.18968.18968,0,0,0,.3273-.1913c-1.4907-3.0562-6.238-4.5783-9.3763-4.7006a.03837.03837,0,0,0-.0102.075Z" fill="#b7b3b5"/>
        <path d="M63.8391,44.6566a29.55071,29.55071,0,0,1,3.7285,2.0335,22.19161,22.19161,0,0,1,1.9774,1.4763c.4862.4058,1.6557,1.2224,1.7799,1.8524.0329.1667.2927.1253.2921-.0396-.0036-1.0018-1.9613-2.1198-2.6853-2.6557a19.44488,19.44488,0,0,0-5.0642-2.7342c-.039-.0138-.0663.0495-.0284.0673Z" fill="#b7b3b5"/>
        <path d="M63.826,48.2926c-1.0311,2.0396-.3798,4.79.969,6.5399.0832.1079.3126.0521.2478-.1044-.9248-2.2318-1.6717-3.915-1.1182-6.394.0127-.0569-.0697-.0986-.0986-.0415Z" fill="#b7b3b5"/>
        <path d="M63.8391,51.5841a5.58255,5.58255,0,0,0,4.4312,1.2287.11132.11132,0,0,0,0-.2131c-.7412-.1539-1.5022-.0605-2.2505-.2181a6.395,6.395,0,0,1-2.1448-.8588c-.0393-.0256-.0712.0344-.0359.0613Z" fill="#b7b3b5"/>
        <path d="M67.8276,52.7064c.7023-1.0748.8871-3.0788-.0782-4.0656a.10082.10082,0,0,0-.1672.0973,8.95553,8.95553,0,0,1,.4879,1.939,4.90992,4.90992,0,0,1-.406,1.9604c-.0377.0987.1107.1498.1635.0689Z" fill="#b7b3b5"/>
        <path d="M64.6056,48.6547a20.16629,20.16629,0,0,1,4.9843.4896.20547.20547,0,0,0,.1092-.3959,8.93852,8.93852,0,0,0-5.1117-.2281.06873.06873,0,0,0,.0182.1344Z" fill="#b7b3b5"/>
        <path d="M67.001,56.4426a4.89957,4.89957,0,0,0,3.4452-.8601c.1072-.0828-.0093-.2705-.1319-.2265-.5494.1969-1.0589.4776-1.6205.651-.5584.1725-1.1282.2536-1.6928.395-.019.0047-.0211.0372,0,.0406Z" fill="#b7b3b5"/>
        <path d="M66.9262,54.9129c1.3481.4635,3.6372,1.2383,4.7432-.1717a.15347.15347,0,0,0-.185-.2398,5.236,5.236,0,0,1-2.0461.6303,10.97257,10.97257,0,0,1-2.4953-.2797.03161.03161,0,0,0-.0168.0609Z" fill="#b7b3b5"/>
        <path d="M69.4691,53.4615a8.49568,8.49568,0,0,0,1.1873-.1077,3.10964,3.10964,0,0,0,.9538-.2094c.158-.0762.0661-.2968-.083-.3065a3.254,3.254,0,0,0-.9969.1794,8.35617,8.35617,0,0,0-1.0766.3304.05825.05825,0,0,0,.0154.1138Z" fill="#b7b3b5"/>
        <path d="M55.4607,50.4135a4.78612,4.78612,0,0,1,2.5779-2.5634,19.72143,19.72143,0,0,1,3.6925-.6186c.1763-.0345.1099-.268-.0389-.2869-2.2864-.2903-6.1191.6151-6.3026,3.4496a.03842.03842,0,0,0,.0711.0193Z" fill="#b7b3b5"/>
        <path d="M56.8983,49.4595a12.837,12.837,0,0,1,7.9546-.7328c.134.0234.2491-.1771.1014-.2405a9.03189,9.03189,0,0,0-8.0959.9051.03953.03953,0,0,0,.0399.0682Z" fill="#b7b3b5"/>
        <path d="M63.2303,18.0059a5.41763,5.41763,0,0,0-1.0204-1.154l-.0408-.0361c-.092-.0768-.1898-.151-.2901-.2242l-.0003-.0002-.0001-.0001a6.34968,6.34968,0,0,0-1.4545-.7884,5.49518,5.49518,0,0,0-2.659-.2081c-.0518.0065-.1037.0127-.1551.0198l-.0001.0001c-.0209.0029-.0423.005-.0631.008a7.53409,7.53409,0,0,1-2.039.3953,11.94,11.94,0,0,0-5.4651.2361c-2.7088.9029-5.3419,3.6865-5.7933,5.2663-.4514,1.5799.5266,4.4387.5266,4.4387a7.24492,7.24492,0,0,0,.3009,2.1817c.3762,1.5799,3.0846,4.1377,3.0846,4.1377a7.33755,7.33755,0,0,0,3.1584,1.263h-.0001l.0005.0001q.18645.0321.3728.0573c2.3364.3329,5.801.2113,7.6157-1.2774a5.63186,5.63186,0,0,0,1.9252-3.4062c.2417-1.4357.1962-1.922,1.1732-3.0216.8321-.9364,2.0018-1.5358,2.3374-2.842C65.1077,21.6385,64.3057,19.511,63.2303,18.0059Z" fill="#ba8e47"/>
        <path d="M10.0749,41.3598a47.45953,47.45953,0,0,1,10.8699.6793c6.0173,1.0676,16.3048,3.1057,16.3048,3.1057L34.241,47.1829,14.2482,42.8155Z" fill="#c1b26e"/>
        <path d="M12.5378,45.7202a47.45414,47.45414,0,0,1,10.8685-.6996c6.104.2986,16.5666,1.0204,16.5666,1.0204l-2.727,2.4019L16.8615,46.637Z" fill="#d8cea4"/>
        <path d="M9.1288,50.1655A47.45455,47.45455,0,0,1,19.765,47.8228c6.0784-.6321,16.5293-1.5081,16.5293-1.5081L33.9639,49.103,13.5417,50.4147Z" fill="#afaf9c"/>
        <path d="M23.7593,53.9766s-4.8526.8734-6.8907,4.0762a18.14056,18.14056,0,0,0-2.4263,6.9877s3.8821-2.5233,6.4055-2.7174a18.87507,18.87507,0,0,1,6.1143,1.0676s4.3673-1.9411,4.1732-2.3293S26.2827,53.3943,23.7593,53.9766Z" fill="#b6c687"/>
        <path d="M26.9621,63.3907s4.3673-1.9411,4.1732-2.3293a33.5254,33.5254,0,0,0-2.7695-3.8519,12.59351,12.59351,0,0,0-5.3829,1.1344,27.96988,27.96988,0,0,0-8.4989,6.378c-.0297.2034-.0417.3186-.0417.3186s3.8821-2.5233,6.4055-2.7174A18.87507,18.87507,0,0,1,26.9621,63.3907Z" fill="#84a172"/>
        <path d="M13.3747,67.4669a18.96866,18.96866,0,0,0,5.9202-2.4264c2.0381-1.5528,4.1733-3.3968,6.7937-3.2027a14.81885,14.81885,0,0,1,5.1438,1.5529s-1.3588,7.7641-1.5529,8.0553-5.3379,3.5909-8.0553,1.6499C18.9067,71.1548,15.9951,67.758,13.3747,67.4669Z" fill="#7e965c"/>
        <g>
          <path d="M28.4142,29.8875c6.8388,2.431,11.3297,7.3639,10.0308,11.0179-1.2989,3.6541-7.8958,4.6455-14.7346,2.2145-6.8387-2.4311-11.3297-7.3639-10.0307-11.018C14.9786,28.4479,21.5755,27.4565,28.4142,29.8875Z" fill="#bacc78"/>
          <ellipse cx="27.83957" cy="37.13545" rx="6.4378" ry="11.25556" transform="translate(-16.47554 50.92872) rotate(-70.43095)" fill="#e5eacd"/>
          <path d="M30.2274,33.6183c3.7913,1.3477,6.2398,4.1981,5.469,6.3666-.7709,2.1685-4.4692,2.8339-8.2605,1.4862s-6.2399-4.1982-5.469-6.3667C22.7377,32.9359,26.4361,32.2705,30.2274,33.6183Z" fill="#dfde98"/>
          <path d="M32.6108,38.5659s1.3839.1403,1.5878-.3456c.2039-.486-.1925-.8584-.6243-.6555A3.59349,3.59349,0,0,0,32.6108,38.5659Z" fill="#edecc8"/>
          <path d="M32.2004,37.0451s1.2839-.5354,1.2318-1.0598a.46722.46722,0,0,0-.8611-.2792A3.59382,3.59382,0,0,0,32.2004,37.0451Z" fill="#edecc8"/>
          <path d="M29.5195,37.1093s1.3839.1404,1.5878-.3455c.2039-.486-.1926-.8585-.6244-.6555A3.59271,3.59271,0,0,0,29.5195,37.1093Z" fill="#edecc8"/>
          <path d="M29.0063,35.5495s1.2302-.6493,1.131-1.1668a.46719.46719,0,0,0-.8828-.2002A3.59262,3.59262,0,0,0,29.0063,35.5495Z" fill="#edecc8"/>
          <path d="M26.5116,35.2117s1.255-.5998,1.1765-1.1209a.46725.46725,0,0,0-.8742-.2352A3.59313,3.59313,0,0,0,26.5116,35.2117Z" fill="#edecc8"/>
          <path d="M30.5771,38.6664s.9376,1.0276.6689,1.4809a.46724.46724,0,0,1-.8985-.1106A3.59378,3.59378,0,0,1,30.5771,38.6664Z" fill="#edecc8"/>
          <path d="M29.1114,39.2433s.3353,1.35-.1168,1.6208-.8771-.0688-.7375-.5251A3.59479,3.59479,0,0,1,29.1114,39.2433Z" fill="#edecc8"/>
          <path d="M27.5651,37.0523s.9375,1.0276.6688,1.4809a.46718.46718,0,0,1-.8984-.1106A3.59378,3.59378,0,0,1,27.5651,37.0523Z" fill="#edecc8"/>
          <path d="M26.0067,37.57s.2119,1.3747-.2628,1.6036c-.4748.2288-.8673-.1479-.687-.5896A3.594,3.594,0,0,1,26.0067,37.57Z" fill="#edecc8"/>
          <path d="M24.2485,35.7681s.2664,1.3653-.1988,1.6128c-.4653.2475-.8725-.1132-.7099-.5618A3.59474,3.59474,0,0,1,24.2485,35.7681Z" fill="#edecc8"/>
        </g>
        <g>
          <ellipse cx="30.78925" cy="31.4617" rx="7.02175" ry="13.14176" transform="translate(-13.21813 32.54212) rotate(-47.02528)" fill="#bacc78"/>
          <path d="M36.5578,28.0372c4.5481,4.2375,6.2704,9.7815,3.8467,12.3829-2.4238,2.6014-8.0756,1.2751-12.6238-2.9624-4.5481-4.2375-6.2704-9.7815-3.8466-12.3829C26.3578,22.4734,32.0096,23.7997,36.5578,28.0372Z" fill="#e5eacd"/>
          <path d="M35.7577,30.4682c2.944,2.7429,4.0588,6.3314,2.4899,8.0153-1.5688,1.6838-5.2272.8253-8.1711-1.9175-2.944-2.7429-4.0587-6.3315-2.4899-8.0153C29.1554,26.8668,32.8138,27.7253,35.7577,30.4682Z" fill="#dfde98"/>
          <path d="M35.9797,35.9555s1.2143.6785,1.5944.3136a.46724.46724,0,0,0-.3126-.8496A3.59289,3.59289,0,0,0,35.9797,35.9555Z" fill="#edecc8"/>
          <path d="M36.2072,34.3968s1.3908.0187,1.5514-.4832c.1606-.502-.267-.8383-.6793-.5983A3.59235,3.59235,0,0,0,36.2072,34.3968Z" fill="#edecc8"/>
          <path d="M33.7213,33.3908s1.2143.6786,1.5945.3136a.46728.46728,0,0,0-.3127-.8496A3.59565,3.59565,0,0,0,33.7213,33.3908Z" fill="#edecc8"/>
          <path d="M33.87,31.7555s1.3869-.1072,1.5014-.6216c.1146-.5144-.3416-.8107-.7306-.5344A3.5932,3.5932,0,0,0,33.87,31.7555Z" fill="#edecc8"/>
          <path d="M31.7147,30.4544s1.39-.0518,1.525-.5613c.1349-.5094-.3092-.8236-.7089-.5631A3.595,3.595,0,0,0,31.7147,30.4544Z" fill="#edecc8"/>
          <path d="M34.0734,35.2399s.4522,1.3154.0255,1.6248a.4672.4672,0,0,1-.7805-.4585A3.5928,3.5928,0,0,1,34.0734,35.2399Z" fill="#edecc8"/>
          <path d="M32.4991,35.187s-.2286,1.3722-.751,1.4411c-.5225.0689-.7776-.4116-.4682-.7748A3.594,3.594,0,0,1,32.4991,35.187Z" fill="#edecc8"/>
          <path d="M31.9504,32.5621s.4522,1.3154.0255,1.6248a.46726.46726,0,0,1-.7806-.4585A3.59423,3.59423,0,0,1,31.9504,32.5621Z" fill="#edecc8"/>
          <path d="M30.3146,32.4181s-.3517,1.3458-.8782,1.3673a.46728.46728,0,0,1-.3963-.814A3.59369,3.59369,0,0,1,30.3146,32.4181Z" fill="#edecc8"/>
          <path d="M29.4168,30.0661s-.2978,1.3587-.8231,1.4011a.46722.46722,0,0,1-.4283-.7975A3.59344,3.59344,0,0,1,29.4168,30.0661Z" fill="#edecc8"/>
        </g>
        <path d="M43.0376,37.5938l.0301-.0334c2.1852-2.5475,1.1088-8.1203-2.7097-13.1223-4.1804-5.476-10.0616-8.1921-13.1361-6.0665-3.0746,2.1256-2.1782,8.2879,2.0022,13.7639,3.8186,5.0021,9.055,7.6988,12.2765,6.5084.0142-.0051.0279-.0113.0421-.0167.0837-.032.1669-.065.2477-.1024.0444-.0203.0869-.0437.1304-.0656.0527-.0268.1063-.052.1577-.0813.0962-.0544.1904-.1128.2817-.176.0913-.0631.1786-.1302.2628-.2004.0454-.0377.0875-.0787.1309-.1185.035-.0322.0713-.0633.105-.0968C42.9212,37.7246,42.9798,37.6596,43.0376,37.5938Z" fill="#98a863" opacity="0.62" style="mix-blend-mode: multiply"/>
        <g>
          <path d="M40.9041,22.7504c4.266,5.8721,5.1807,12.48,2.0433,14.7593-3.1375,2.2793-9.1391-.6331-13.405-6.5052-4.2659-5.872-5.1807-12.48-2.0433-14.7593C30.6366,13.9659,36.6382,16.8784,40.9041,22.7504Z" fill="#bacc78"/>
          <path d="M41.5403,24.6196c3.6537,5.0293,4.2836,10.8004,1.4071,12.8901-2.8766,2.0898-8.1704-.2931-11.824-5.3224-3.6536-5.0292-4.2836-10.8003-1.407-12.8901C32.5929,17.2075,37.8867,19.5904,41.5403,24.6196Z" fill="#f3f8e8"/>
          <path d="M40.2901,26.8527c2.3649,3.2554,2.7727,6.9909.9107,8.3436-1.862,1.3526-5.2885-.1898-7.6535-3.4451-2.3649-3.2554-2.7727-6.9909-.9107-8.3436C34.4985,22.0549,37.9251,23.5974,40.2901,26.8527Z" fill="#dfde98"/>
          <path d="M39.4583,32.2811s1.0621.8983,1.505.6128a.46724.46724,0,0,0-.1443-.8937A3.59517,3.59517,0,0,0,39.4583,32.2811Z" fill="#edecc8"/>
          <path d="M39.9797,30.7948s1.3617.2843,1.6153-.1776c.2536-.462-.1017-.8739-.5524-.7172A3.59234,3.59234,0,0,0,39.9797,30.7948Z" fill="#edecc8"/>
          <path d="M37.7322,29.3318s1.0621.8983,1.505.6128a.46717.46717,0,0,0-.1443-.8936A3.59369,3.59369,0,0,0,37.7322,29.3318Z" fill="#edecc8"/>
          <path d="M38.191,27.7551s1.3817.1601,1.5926-.3228c.2108-.483-.1803-.8611-.615-.6644A3.59319,3.59319,0,0,0,38.191,27.7551Z" fill="#edecc8"/>
          <path d="M36.3243,26.0659s1.3743.2149,1.6042-.2593-.1459-.8676-.588-.6883A3.593,3.593,0,0,0,36.3243,26.0659Z" fill="#edecc8"/>
          <path d="M37.7241,31.2141s.1922,1.3777-.2857,1.5997c-.478.222-.8651-.1602-.6785-.5993A3.59293,3.59293,0,0,1,37.7241,31.2141Z" fill="#edecc8"/>
          <path d="M36.189,30.8611s-.4868,1.3031-1.0128,1.2708a.46723.46723,0,0,1-.3114-.85A3.5936,3.5936,0,0,1,36.189,30.8611Z" fill="#edecc8"/>
          <path d="M36.1525,28.1797s.1922,1.3776-.2857,1.5996c-.478.2221-.8651-.1601-.6785-.5993A3.59359,3.59359,0,0,1,36.1525,28.1797Z" fill="#edecc8"/>
          <path d="M34.5744,27.7255s-.6026,1.2537-1.1235,1.174a.46723.46723,0,0,1-.2332-.8747A3.59333,3.59333,0,0,1,34.5744,27.7255Z" fill="#edecc8"/>
          <path d="M34.1432,25.2451s-.5523,1.2767-1.076,1.2178a.46722.46722,0,0,1-.2678-.8647A3.59282,3.59282,0,0,1,34.1432,25.2451Z" fill="#edecc8"/>
        </g>
        <path d="M47.0158,31.7057s-2.7084-2.5578-3.0845-4.1377a7.2406,7.2406,0,0,1-.3009-2.1817s-.9781-2.8588-.5267-4.4387c.4514-1.5798,3.0845-4.3634,5.7933-5.2663a11.94,11.94,0,0,1,5.4651-.2361,7.53552,7.53552,0,0,0,2.0391-.3953,5.74535,5.74535,0,0,1,2.8773.1801,6.08709,6.08709,0,0,1,3.8368,4.8148,6.72691,6.72691,0,0,1-.1505,3.235s-3.3101.9028-3.6863,2.4074a25.34088,25.34088,0,0,0-.3009,4.7396s-2.1065.2257-2.4827,1.2037c-.3761.978-.7523,1.1285-.7523,1.1285S50.2507,34.1131,47.0158,31.7057Z" fill="#fff793"/>
        <path d="M60.733,16.0185a6.13977,6.13977,0,0,0-.788-.4704,5.79486,5.79486,0,0,0-2.754-.5802q-.1986.01215-.3951.0328c-.0338.0038-.0674.0072-.101.0116q-.11595.01365-.2306.0295a5.01034,5.01034,0,0,0-1.1003.3241,21.26981,21.26981,0,0,1,1.5925,3.039c.845,2.5839-1.2597,4.1072-2.549,5.9434-1.2219,1.7401.2647,3.4972-.1914,5.3483-.3848,1.5617-2.2914,3.5733-4.0419,3.2721,2.3252.4004,6.0754.3497,7.989-1.22a5.63281,5.63281,0,0,0,1.9252-3.4063c.2416-1.4356.1961-1.9219,1.1731-3.0215.8321-.9364,2.0018-1.5358,2.3375-2.842C64.1059,20.5056,62.3445,17.1327,60.733,16.0185Z" fill="#efd15f"/>
        <path d="M72.7186,36.1294l-.1454-1.6005.3637-1.3823a7.4686,7.4686,0,0,0-.2183-3.201,6.60184,6.60184,0,0,0-2.91-3.7102,6.53708,6.53708,0,0,0-4.074-.2183,3.45251,3.45251,0,0,0-1.0912-.2182,2.757,2.757,0,0,0-1.6005.5092s-2.8373-.7275-4.1467.0728a46.36725,46.36725,0,0,0-4.0013,3.1282s-.0876-.2127-.2501-.5543a5.12081,5.12081,0,0,0-.2682,1.3013l.0818.1988-.2183,1.746a8.34756,8.34756,0,0,0-.4365,1.8187,6.57206,6.57206,0,0,0,.2183,2.328s-.291.2183-.291,1.0185c0,.8003.4365,1.0185.4365,1.0185a10.8204,10.8204,0,0,0-.0728,3.0555c.2183,1.455,2.4008,2.2553,3.201,2.5463a7.422,7.422,0,0,0,2.6918-.0728l2.2552.8003,3.6376.4365a10.59818,10.59818,0,0,0,3.8557-1.6733c2.2553-1.455,2.1825-4.5105,2.1825-4.5105s.3638-.5092.9457-1.3822A1.05467,1.05467,0,0,0,72.7186,36.1294Z" fill="#9eb2bd" style="mix-blend-mode: multiply"/>
        <g>
          <path d="M72.1366,34.8199l-.1454-1.6005.3637-1.3823a7.4686,7.4686,0,0,0-.2183-3.201,6.60163,6.60163,0,0,0-2.9099-3.7102,6.537,6.537,0,0,0-4.074-.2183,3.45279,3.45279,0,0,0-1.0913-.2182,2.75665,2.75665,0,0,0-1.6005.5092s-2.8373-.7275-4.1468.0728a22.58225,22.58225,0,0,0-2.4077,1.7959c-.7076.5748-1.6227,1.1321-1.8885,2.0438a12.524,12.524,0,0,0-.3597,1.9803,8.35071,8.35071,0,0,0-.4366,1.8187,6.56947,6.56947,0,0,0,.2183,2.328s-.291.2183-.291,1.0185c0,.8003.4365,1.0185.4365,1.0185a10.81814,10.81814,0,0,0-.0727,3.0555c.2182,1.455,2.4007,2.2553,3.201,2.5463a7.42141,7.42141,0,0,0,2.6917-.0728l2.2552.8003,3.6375.4365a10.59744,10.59744,0,0,0,3.8558-1.6733c2.2553-1.455,2.1825-4.5105,2.1825-4.5105s.3637-.5092.9458-1.3822A1.05485,1.05485,0,0,0,72.1366,34.8199Z" fill="#f4fbfe"/>
          <path d="M59.7087,33.8818c-.8532-.7162-2.2543.0615-3.0334.5607a3.72915,3.72915,0,0,0-1.9297,2.8556c.0072.1724.2692.2777.3531.0956a5.90851,5.90851,0,0,1,1.4038-2.2871,3.73538,3.73538,0,0,1,3.1473-1.1236c.0543.0121.1084-.0596.0589-.1012Z" fill="#b7b3b5"/>
          <path d="M57.3029,33.0219c2.1419.688,5.3016,1.6432,5.9288,4.1486a.11108.11108,0,0,0,.2172-.0293c-.0108-1.0771-1.0592-1.9285-1.8677-2.518a11.55426,11.55426,0,0,0-4.272-1.6242.01188.01188,0,0,0-.0063.0229Z" fill="#b7b3b5"/>
          <path d="M59.6005,36.017a9.66879,9.66879,0,0,1-3.0323.9252c-.4656.0791-.9321.1673-1.3992.2377q-1.3827.4644-1.9199-1.3271.1242-.38805.2594-.7724a.12293.12293,0,0,0-.2237-.0943c-.5661,1.0528-.5957,2.3819.857,2.5731a9.088,9.088,0,0,0,2.8852-.4449,9.21363,9.21363,0,0,0,2.62-1.0178c.0518-.029.0057-.1075-.0465-.0795Z" fill="#b7b3b5"/>
          <path d="M53.6271,35.4377c-.8468-3.171.6282-5.6532,3.2623-7.3665,2.7547-1.7917,5.3253-1.7658,8.2737-.4836,5.7878,2.5172,5.8658,9.0016,2.0765,13.3726-.1694.1954.1087.4803.2866.2866a9.78422,9.78422,0,0,0,2.7613-7.981,7.85937,7.85937,0,0,0-5.2282-6.154,8.37641,8.37641,0,0,0-9.0524,1.1462c-2.3548,1.7394-3.5541,4.3683-2.5473,7.2259a.08693.08693,0,0,0,.1675-.0462Z" fill="#b7b3b5"/>
          <path d="M66.7396,32.0581a14.43371,14.43371,0,0,1,.8322,5.1872,18.10645,18.10645,0,0,1-1.2641,4.8838c-.0598.1705.1907.2602.2814.1186,1.926-3.0046,1.5403-7.0618.2419-10.2148-.0225-.0546-.1091-.0351-.0914.0252Z" fill="#b7b3b5"/>
          <path d="M68.3169,29.591a10.86372,10.86372,0,0,1-1.0832,9.5141c-.1399.2264.2039.4181.3522.2059a9.82523,9.82523,0,0,0,.8127-9.7545c-.0221-.0454-.0974-.0136-.0817.0345Z" fill="#b7b3b5"/>
          <path d="M69.2617,31.1138a3.92169,3.92169,0,0,1,2.7407,3.4879.15275.15275,0,0,0,.3053,0,3.75678,3.75678,0,0,0-3.0222-3.6637c-.1095-.011-.1081.1409-.0238.1758Z" fill="#b7b3b5"/>
          <path d="M71.1598,34.0368c1.5073.9117.7474,2.4105-.1225,3.4786a6.72985,6.72985,0,0,1-2.1329,1.559.15644.15644,0,0,0,.0784.2893c1.9741-.1175,5.3312-4.6907,2.2226-5.4351a.05946.05946,0,0,0-.0456.1082Z" fill="#b7b3b5"/>
          <path d="M71.2765,37.8735a6.34133,6.34133,0,0,1-4.1704,5.2385,10.01538,10.01538,0,0,1-6.4654-.3981,1.60767,1.60767,0,0,0-1.4945-.0824,2.05663,2.05663,0,0,0,.8566.3826c2.7309.7438,5.7915,1.5284,8.4262-.0212a6.2641,6.2641,0,0,0,3.016-5.1194C71.4459,37.7617,71.2904,37.7697,71.2765,37.8735Z" fill="#b7b3b5"/>
          <path d="M60.3385,24.7821c4.7586.5694,8.8706,2.2131,10.3872,7.1342a.17651.17651,0,0,0,.3401-.0938c-.8587-4.795-6.2321-7.4543-10.7273-7.1193a.03947.03947,0,0,0,0,.0789Z" fill="#b7b3b5"/>
          <path d="M62.3811,24.863a8.3254,8.3254,0,0,1,5.2599.9195c1.8491,1.1161,2.1785,2.96,2.898,4.8374a.1133.1133,0,0,0,.2183-.0602,6.41024,6.41024,0,0,0-8.3863-5.7716c-.039.0123-.0347.079.0101.0749Z" fill="#b7b3b5"/>
          <path d="M64.7885,24.6064a6.84509,6.84509,0,0,1,5.7948,1.6914,6.22277,6.22277,0,0,1,1.1043,7.0088c-.1077.2397.2446.4508.3568.2085,2.1483-4.6385-1.9295-10.7706-7.2682-8.9991-.0464.0154-.0422.0958.0123.0904Z" fill="#b7b3b5"/>
          <path d="M57.1452,26.0407a5.62218,5.62218,0,0,0-2.694,2.1078,4.26426,4.26426,0,0,0-.9115,3.2131.13621.13621,0,0,0,.2662-.036,5.86572,5.86572,0,0,1,3.4387-5.0492c.1305-.062.0379-.2873-.0994-.2357Z" fill="#b7b3b5"/>
          <path d="M54.037,35.782c.6883-3.7633,4.5251-6.4815,8.1409-4.2085,3.352,2.1072,3.2435,6.3764,3.4552,9.8406a.17906.17906,0,0,0,.3579,0c.1767-3.8616-.439-9.3436-4.7903-10.7587a5.51117,5.51117,0,0,0-7.2387,5.1165c.0004.0415.067.0537.075.0101Z" fill="#b7b3b5"/>
          <path d="M58.7567,32.6607a5.21641,5.21641,0,0,1,4.7792,1.6015,9.56009,9.56009,0,0,1,2.0789,3.781.127.127,0,0,0,.2482-.0336c-.0264-3.1922-3.9147-6.8498-7.1246-5.3922-.0253.0115-.0068.0492.0183.0433Z" fill="#b7b3b5"/>
          <path d="M55.0402,31.1485c2.206-1.6603,4.5055-3.0243,7.3643-3.0368a8.37608,8.37608,0,0,1,7.1253,3.9673.21729.21729,0,0,0,.375-.2191c-2.971-5.5531-11.1344-5.2401-14.9093-.7693-.0248.0294.0088.0849.0447.0579Z" fill="#b7b3b5"/>
          <path d="M66.0145,38.3237c.3358-3.5736.0635-7.4556-2.2744-10.3412-.2045-.2524-.5615.107-.3573.3573,2.3779,2.9141,2.2182,6.4462,2.4474,9.9839a.09221.09221,0,0,0,.1843,0Z" fill="#b7b3b5"/>
          <path d="M53.6042,37.348c-1.1055,3.9311,2.2035,6.0453,5.8458,5.4405a6.49346,6.49346,0,0,0,4.1195-2.575,7.39149,7.39149,0,0,0,1.4085-4.8641.24911.24911,0,0,0-.1734-.1733l-.1607-.0568c-.2516-.0889-.411.3016-.1805.4281.5419.2975-.7825,3.5542-1.0227,3.9646a6.0227,6.0227,0,0,1-3.5887,2.6925,6.65144,6.65144,0,0,1-4.692-.4835c-1.5965-.9534-1.533-2.7421-1.3904-4.3506.0085-.0965-.1404-.1116-.1654-.0224Z" fill="#b7b3b5"/>
          <path d="M54.1799,37.4831c-.6453,3.8067,4.548,4.235,6.8451,2.6243a.15076.15076,0,0,0-.1156-.2742,10.80793,10.80793,0,0,1-3.6207.7393,3.07631,3.07631,0,0,1-2.9821-3.0723c.0014-.0707-.1143-.0902-.1267-.0171Z" fill="#b7b3b5"/>
          <path d="M60.1355,34.1103a4.44319,4.44319,0,0,0-.1593,4.1632c.5759,1.3024,1.4168,2.4826,2.9138,2.6677.2576.0318.3082-.3903.0609-.4498a3.83791,3.83791,0,0,1-2.593-2.441,4.52364,4.52364,0,0,1-.0204-3.8549.111.111,0,0,0-.202-.0852Z" fill="#b7b3b5"/>
          <path d="M60.8725,34.3005a2.37292,2.37292,0,0,0,.6597,2.8265c.7017.5786,2.2801,1.0827,3.1227.5976a.16842.16842,0,0,0,0-.2886,2.30744,2.30744,0,0,0-.9494-.1389A3.689,3.689,0,0,1,62.2,36.9414a2.47349,2.47349,0,0,1-1.1975-2.6057.07032.07032,0,0,0-.13-.0352Z" fill="#b7b3b5"/>
        </g>
        <path d="M37.7983,40.7088a44.35146,44.35146,0,0,0,6.2466-2.6048q2.6445-1.26465,5.2889-2.5291c-2.761.7234-5.6059,1.04-8.4116,1.5425-1.2053.2159-2.4414.2892-3.626.6113-.7846.2133-2.5925.5724-2.9989,1.3147a1.79855,1.79855,0,0,0,.9915,2.3033C36.0853,41.5432,37.0626,40.9309,37.7983,40.7088Z" fill="#ffeed0"/>
        <path d="M36.4011,44.1995s6.6678-2.6786,9.6312-4.7269a42.59859,42.59859,0,0,0,5.1861-4.2542s-9.5387,4.8845-11.576,5.9874a30.16951,30.16951,0,0,1-4.5379,1.8908Z" fill="#ffeed0"/>
        <polygon points="38.414 41.521 57.521 44.593 47.064 41.678 39.06 40.339 38.414 41.521" fill="#ffeed0"/>
        <polygon points="35.151 43.693 48.534 51.343 46.148 53.38 35.12 44.683 35.151 43.693" fill="#ffeed0"/>
        <path d="M35.3046,47.1932l9.9264-2.9937,5.3571.1576.0788.8666-6.1449.9453-8.5872,3.2301A3.25113,3.25113,0,0,1,35.3046,47.1932Z" fill="#ffeed0"/>
        <polygon points="50.903 35.349 52.479 50.168 54.291 50.423 51.612 34.582 50.903 35.349" fill="#ffeed0"/>
        <path d="M49.564,43.1753l4.0966-7.7993-1.1029-1.1817L44.2068,43.648,42.001,45.8539l3.8602-.9454s5.8299-7.6418,5.5935-7.4054c-.2363.2363-3.7027,5.9874-3.7027,5.9874Z" fill="#ffeed0"/>
        <polygon points="44.128 46.799 55.788 51.29 50.431 50.344 42.001 46.721 44.128 46.799" fill="#ffeed0"/>
        <polygon points="42.939 46.957 59.859 43.569 61.539 44.199 41.859 47.823 42.939 46.957" fill="#ffeed0"/>
        <path d="M29.1943,62.5172s-6.0173-1.844-6.4055-6.5025.2912-5.7261.0971-6.8907a7.0162,7.0162,0,0,0-.6794-2.0381,18.15362,18.15362,0,0,0,3.4939,2.3292c1.5528.6794,2.9116.2912,5.1438,5.1438s.7764,6.7937.7764,6.7937Z" fill="#5e7344"/>
        <path d="M35.8909,55.2383s.7764-5.0468-.1941-7.9583a56.83507,56.83507,0,0,0-4.2703-8.2495s-2.6204,7.6671-2.5234,9.8993c.0971,2.2323,3.8821,10.1906,3.8821,10.1906Z" fill="#d3dbb5"/>
        <path d="M29.0002,63.6818s-2.6205-2.0381-1.844-6.8907c.7764-4.8526,2.4263-6.8907,2.5233-8.5406.0971-1.6499.2912-2.8145.2912-2.8145a28.96561,28.96561,0,0,1,2.3292,7.57,33.28733,33.28733,0,0,1-.2911,9.5112Z" fill="#b6c687"/>
        <path d="M31.2542,40.6079c1.318,6.1444,2.4607,12.0028,1.9763,18.3191-.0054.0695.1106.0863.1227.0166,1.0534-6.0434-.5302-12.5195-2.0292-18.3549a.03622.03622,0,0,0-.0698.0192Z" fill="#b6c687"/>
        <path d="M34.7618,50.9361a12.36505,12.36505,0,0,0-1.335,2.8399c-.0265.0787.1004.1344.1359.0573.4321-.94.8807-1.9112,1.2232-2.887.0051-.0147-.0162-.022-.0241-.0102Z" fill="#b6c687"/>
        <path d="M31.5065,47.6784a2.92279,2.92279,0,0,0,.6195.6839,2.09936,2.09936,0,0,0,.7229.4664c.0543.0163.1082-.0631.0589-.1012-.2108-.1629-.4609-.2716-.6776-.4289a7.03754,7.03754,0,0,1-.6958-.6417.01783.01783,0,0,0-.0279.0215Z" fill="#b6c687"/>
        <path d="M33.539,44.8483a5.42639,5.42639,0,0,1-.4035,1.0756c-.1653.3093-.3937.5657-.5816.8583-.049.0764.0559.1419.1178.0909a2.93949,2.93949,0,0,0,.8996-2.0204.01651.01651,0,0,0-.0323-.0044Z" fill="#b6c687"/>
        <path d="M29.6796,71.446c.0972-.1459.4869-2.1684.8516-4.1502-2.4483.0595-8.8177.2299-11.9156.4622a18.36091,18.36091,0,0,1-5.0231-.3433c-.1383.0342-.2178.0522-.2178.0522,2.6205.2911,5.532,3.6879,8.2495,5.629C24.3416,75.0369,29.4854,71.7372,29.6796,71.446Z" fill="#6e8550"/>
        <path d="M16.2863,81.8306a70.4264,70.4264,0,0,1,5.3379-6.5025,33.63654,33.63654,0,0,1,6.0172-4.3674l.1941,10.2876S17.4509,82.0247,16.2863,81.8306Z" fill="#5e7344"/>
        <path d="M27.8355,81.2483l-.0973-5.157a98.92914,98.92914,0,0,0-10.9778,5.768C19.1075,81.9007,27.8355,81.2483,27.8355,81.2483Z" fill="#7e965c"/>
        <path d="M25.6033,68.9226s-7.376,4.3674-10.6757,5.8232c-3.2998,1.4558-13.0051,4.3673-13.0051,4.3673a51.957,51.957,0,0,1,8.9289.7765c3.4938.7764,10.4816-2.2322,12.9079-4.0762s2.6204-3.4939,2.6204-3.4939S29.8736,65.7199,25.6033,68.9226Z" fill="#b6c687"/>
        <path d="M26.556,71.9727a22.0793,22.0793,0,0,1-9.3962,4.6171,60.22924,60.22924,0,0,1-14.61,2.3335c-.3976.1209-.6273.1898-.6273.1898a51.9554,51.9554,0,0,1,8.9288.7765c3.494.7764,10.4817-2.2322,12.908-4.0762,2.4264-1.844,2.6204-3.4939,2.6204-3.4939S26.4498,72.1867,26.556,71.9727Z" fill="#7e965c"/>
        <circle cx="52.1114" cy="77.00177" r="24.88472" transform="translate(-32.24341 116.10595) rotate(-80.78252)" fill="#9eb2bd" style="mix-blend-mode: multiply"/>
        <circle cx="50.405" cy="75.011" r="24.8848" fill="#fff"/>
        <ellipse cx="50.4761" cy="75.011" rx="22.8168" ry="22.7518" fill="#c8e0ec"/>
        <ellipse cx="50.4761" cy="75.011" rx="22.8168" ry="22.7518" fill="#9eb2bd" opacity="0.53" style="mix-blend-mode: multiply"/>
        <path d="M34.281,85.1643a26.46391,26.46391,0,0,0,.8561,6.6902,22.77872,22.77872,0,0,0,31.938-32.4451A26.57267,26.57267,0,0,0,34.281,85.1643Z" fill="#c8e0ec"/>
        <ellipse cx="50.4761" cy="75.01098" rx="19.3943" ry="19.33902" fill="#f68a50"/>
        <path d="M32.9304,77.2861A19.40083,19.40083,0,0,1,66.4362,64.0273,19.372,19.372,0,1,0,36.3646,88.2698,19.20661,19.20661,0,0,1,32.9304,77.2861Z" fill="#c16d3e"/>
        <path d="M47.6701,60.4374l-.0252-.0878a.23644.23644,0,0,0-.4522,0l-.0251.0878c-.12.4191.6231.4217.5025,0Z" fill="#c16d3e"/>
        <path d="M51.3139,58.4613l-.0304-.1338a.17506.17506,0,0,0-.335,0l-.0305.1338c-.0752.3308.4717.3328.3959,0Z" fill="#c16d3e"/>
        <path d="M56.5195,57.5338a.6066.6066,0,0,0-.4277.1278.20657.20657,0,0,0,0,.2866.6066.6066,0,0,0,.4277.1278c.3487.0307.3493-.5729,0-.5422Z" fill="#c16d3e"/>
        <path d="M32.2745,69.7496l.0021-.0948a.21538.21538,0,0,0-.4305,0l.0021.0948a.21328.21328,0,0,0,.4263,0Z" fill="#c16d3e"/>
        <path d="M34.7577,65.1074a.36589.36589,0,0,0-.3307-.0959.1894.1894,0,0,0-.1361.136.36529.36529,0,0,0,.096.3308.26847.26847,0,1,0,.3708-.3709Z" fill="#c16d3e"/>
        <path d="M38.3944,71.7482a.62619.62619,0,0,0-.6483.1916.16794.16794,0,0,0,0,.17.62713.62713,0,0,0,.6483.1916.28893.28893,0,0,0,0-.5532Z" fill="#c16d3e"/>
        <path d="M35.2636,74.0946a.66553.66553,0,0,0-.2545-.3826.18086.18086,0,0,0-.2693.1545.62543.62543,0,0,0,.1438.3883c.1259.1804.4623.0775.38-.1602Z" fill="#c16d3e"/>
        <path d="M43.9564,85.2873l.0793.0317c.3512.1405.3536-.5653,0-.4238l-.0793.0317a.18886.18886,0,0,0,0,.3604l.0793.0317c.3512.1405.3536-.5653,0-.4238l-.0793.0317a.18886.18886,0,0,0,0,.3604Z" fill="#c16d3e"/>
        <path d="M44.6441,82.7229c-.1886-.0293-.4959-.0493-.628.1191a.19531.19531,0,0,0,0,.2642c.1319.1682.4398.1483.628.1191a.26238.26238,0,0,0,0-.5024Z" fill="#c16d3e"/>
        <path d="M40.8278,83.1163a1.25117,1.25117,0,0,0-.018.2275.21023.21023,0,0,0,.4202,0,1.26017,1.26017,0,0,0-.018-.2275.19223.19223,0,0,0-.3842,0Z" fill="#c16d3e"/>
        <path d="M69.1752,70.0445a.15274.15274,0,0,0,0-.3053.15274.15274,0,0,0,0,.3053Z" fill="#c16d3e"/>
        <path d="M69.09,72.3945l-.0216-.0259a.3234.3234,0,0,0-.4499,0l-.0254.0221a.28833.28833,0,0,0,0,.4058l.0254.0221a.32216.32216,0,0,0,.4499,0l.0216-.0259a.29177.29177,0,0,0,0-.3982Z" fill="#c16d3e"/>
        <path d="M64.6466,67.539c.2429.1404.4506-.0622.4717-.3016.036-.4095-.696-.3394-.5631.0762.0005-.0387-.0007-.0432-.0035-.0133l.0374-.1383-.0079.0151.097-.097-.0137.0075.1349-.0365-.0199-.0025c-.27-.0347-.3424.3693-.1329.4904Z" fill="#c16d3e"/>
        <path d="M55.2975,67.4997a.42172.42172,0,0,0-.3421-.2121.18768.18768,0,0,0-.1869.1868.42162.42162,0,0,0,.2122.3422c.1839.1341.4509-.1329.3168-.3169Z" fill="#c16d3e"/>
        <path d="M56.6069,82.0468l-.0313-.0195-.0615-.1484q-.01215.1221.0864-.1021a.20481.20481,0,0,0-.0894.0456l.1263-.0342c-.1023.0068-.1868-.0079-.2485.1029a.28975.28975,0,0,0,.0904.3445.27068.27068,0,0,0,.2671.0706.33593.33593,0,0,0-.0304-.6553.20546.20546,0,0,0-.1091.3959Z" fill="#c16d3e"/>
        <path d="M60.917,75.6392c-.0748-.0321-.1485-.0651-.2261-.0898a.18033.18033,0,0,0-.2202.2201c.0247.0776.0578.1514.0898.2262a.26059.26059,0,1,0,.3565-.3565Z" fill="#c16d3e"/>
        <path d="M59.4919,62.4837c.1199-.1002.1711-.1487.1483-.3077a.13345.13345,0,0,0-.0974-.0974c-.159-.0228-.2075.0284-.3077.1483a.1817.1817,0,0,0,.2568.2568Z" fill="#c16d3e"/>
        <path d="M59.2748,68.5335l.0179.0899a.22255.22255,0,0,0,.426,0l.0179-.0899a.237.237,0,1,0-.4618,0Z" fill="#c16d3e"/>
        <path d="M65.7877,75.5545a.43538.43538,0,0,0-.3096-.1511.177.177,0,0,0-.1764.1764.43535.43535,0,0,0,.1511.3097.237.237,0,0,0,.3349-.335Z" fill="#c16d3e"/>
        <path d="M59.304,87.451a.36828.36828,0,0,0-.2168.1373.15023.15023,0,0,0,0,.1567.36886.36886,0,0,0,.2168.1374c.359.1194.3614-.5516,0-.4314Z" fill="#c16d3e"/>
        <path d="M48.5919,90.9862a.88291.88291,0,0,0,.0038-.3265.18965.18965,0,0,0-.363,0,.88312.88312,0,0,0,.0039.3265.18556.18556,0,0,0,.3553,0Z" fill="#c16d3e"/>
        <path d="M49.4951,84.1905a.37257.37257,0,0,0-.1916.0995.15411.15411,0,0,0,0,.2122.37309.37309,0,0,0,.1916.0995c.3426.1051.3447-.5169,0-.4112Z" fill="#c16d3e"/>
        <path d="M55.3141,77.3244a.59041.59041,0,0,0-.3338.1289.1672.1672,0,0,0,0,.2345.59041.59041,0,0,0,.3338.1289.25267.25267,0,1,0,0-.4923Z" fill="#c16d3e"/>
        <path d="M48.0389,73.0544a.31718.31718,0,0,0,.237-.363.25775.25775,0,0,0-.3051-.2354.16828.16828,0,0,0-.1215.1597,1.02645,1.02645,0,0,0,.026.1128l-.0056-.0371q-.03015.0858.0601-.0329a.20546.20546,0,0,0,.1091.3959Z" fill="#c16d3e"/>
        <path d="M41.1012,65.1207a.55078.55078,0,0,0-.324.1203.14265.14265,0,0,0,0,.2009.55078.55078,0,0,0,.324.1203.22661.22661,0,1,0,0-.4415Z" fill="#c16d3e"/>
        <path d="M45.2277,69.257a.955.955,0,0,0-.2601-.3201.13539.13539,0,0,0-.2243.1306.88867.88867,0,0,0,.0851.3578c.1228.2019.4983.0682.3993-.1683Z" fill="#c16d3e"/>
        <path d="M48.6696,64.5173a.60632.60632,0,0,0,.1456.1295.24015.24015,0,0,0,.3264-.3263.60461.60461,0,0,0-.1296-.1456.24227.24227,0,0,0-.3424.3424Z" fill="#c16d3e"/>
        <path d="M50.1943,68.3436a.22539.22539,0,0,0-.4318,0,.25005.25005,0,1,0,.4318,0Z" fill="#c16d3e"/>
        <path d="M54.0378,63.686a.62846.62846,0,0,0-.2984.0994.158.158,0,0,0,0,.2681.627.627,0,0,0,.2984.0994.23964.23964,0,1,0,0-.4669Z" fill="#c16d3e"/>
        <path d="M44.9197,63.3507a.34692.34692,0,0,0-.0873-.2576.16527.16527,0,0,0-.2307,0,.34839.34839,0,0,0-.0873.2576c-.0177.2607.423.2611.4053,0Z" fill="#c16d3e"/>
        <path d="M36.2182,82.4534c.057-.2037-.0944-.514-.3458-.4177a.09951.09951,0,0,0-.0582.143.32945.32945,0,0,1,.0487.1768.18439.18439,0,0,0,.3553.0979Z" fill="#c16d3e"/>
        <path d="M46.4997,77.5132l-.0139.0909a.2371.2371,0,0,0,.1058.2601.24216.24216,0,0,0,.2324,0,.235.235,0,0,0,.1059-.2601l-.014-.0909a.21737.21737,0,0,0-.4162,0Z" fill="#c16d3e"/>
        <path d="M53.8598,91.0794a.89468.89468,0,0,0-.0865-.3415.11415.11415,0,0,0-.1955,0,.89468.89468,0,0,0-.0865.3415c-.0303.2367.3989.2372.3685,0Z" fill="#c16d3e"/>
        <path d="M46.4234,86.8292a.37412.37412,0,0,0,.2047-.0511.12555.12555,0,0,0,0-.2136.37543.37543,0,0,0-.2047-.0511c-.2031-.016-.2035.3318,0,.3158Z" fill="#c16d3e"/>
        <path d="M49.9784,76.0089l.0948-.0092a.1355.1355,0,1,0,0-.271l-.0948-.0093c-.1861-.0181-.1865.3077,0,.2895Z" fill="#c16d3e"/>
        <path d="M53.3044,79.6757a.65438.65438,0,0,0,.1376-.3917.1816.1816,0,0,0-.2693-.1545.59487.59487,0,0,0-.2365.331c-.1066.2449.228.4597.3682.2152Z" fill="#c16d3e"/>
        <path d="M52.5078,70.465a.25873.25873,0,0,0,.2811.2609.23422.23422,0,0,0,.1938-.3593.18916.18916,0,0,0-.2935-.0379q.10065-.05085.0526-.0301-.1056.03945.1538.114a.19838.19838,0,0,0-.3878.0524Z" fill="#c16d3e"/>
        <path d="M58.7732,71.6198a.3935.3935,0,0,0,.3059.1732.19517.19517,0,0,0,.1948-.1948.39348.39348,0,0,0-.1732-.306.23176.23176,0,0,0-.3275.3276Z" fill="#c16d3e"/>
        <path d="M61.1543,80.2723c-.0089.0759-.0177.1517-.0269.2275-.0351.2916.489.2921.4538,0-.0092-.0758-.018-.1516-.0269-.2275a.20014.20014,0,0,0-.4,0Z" fill="#c16d3e"/>
        <path d="M63.5966,85.1554l.0279.1345a.15383.15383,0,0,0,.2944,0l.0279-.1345a.17972.17972,0,1,0-.3502,0Z" fill="#c16d3e"/>
        <path d="M57.2167,76.4192l.1016-.0881a.19115.19115,0,0,0,.0491-.1859l-.0074-.0323a.13269.13269,0,0,0-.0938-.0938l-.0323-.0074a.19115.19115,0,0,0-.1859.0491l-.0881.1016a.1817.1817,0,0,0,.2568.2568Z" fill="#c16d3e"/>
        <path d="M55.8465,61.0375l.0226.0392a.18633.18633,0,0,0,.1764.1344l.0474-.004a.136.136,0,0,0,.1316-.1316l.004-.0474a.18491.18491,0,0,0-.1343-.1764l-.0392-.0226a.14749.14749,0,0,0-.2085.2084Z" fill="#c16d3e"/>
        <path d="M57.7993,65.5257l.0948.0074c.2466.0195.247-.4028,0-.3833l-.0948.0074a.18437.18437,0,0,0,0,.3685Z" fill="#c16d3e"/>
        <path d="M65.9553,70.6187a.25264.25264,0,0,0,.3823-.2093c.0079-.1606-.1432-.3326-.3123-.2735a.2041.2041,0,0,0-.0887.3359.14921.14921,0,0,1-.0414-.1222q-.04575.2046.165-.1183c-.2198-.0233-.262.2852-.1049.3874Z" fill="#c16d3e"/>
        <path d="M40.8245,69.0487l.1069-.0741a.20512.20512,0,0,0,.0921-.2262.19518.19518,0,0,0-.14-.14.20355.20355,0,0,0-.2262.0921l-.0741.1069a.17758.17758,0,0,0,.2413.2413Z" fill="#c16d3e"/>
        <path d="M45.0014,73.0176a1.3712,1.3712,0,0,0-.3165.028.122.122,0,0,0,0,.2335,1.36426,1.36426,0,0,0,.3165.028.14484.14484,0,0,0,0-.2895Z" fill="#c16d3e"/>
        <path d="M37.9957,85.4957a.37775.37775,0,0,0,.1275-.2464.09012.09012,0,0,0-.0895-.0895.37407.37407,0,0,0-.2464.1275c-.1472.1212.0871.3556.2084.2084Z" fill="#c16d3e"/>
        <path d="M44.2777,90.0484a.38006.38006,0,0,0-.0476-.1544.09585.09585,0,0,0-.1637,0,.38006.38006,0,0,0-.0476.1544.13287.13287,0,1,0,.2589,0Z" fill="#c16d3e"/>
        <path d="M50.1288,72.8698l.0894.1002a.19686.19686,0,0,0,.1918.0507l.0321-.0082a.13948.13948,0,0,0,.0974-.0974l.0082-.0321a.19686.19686,0,0,0-.0507-.1918l-.1002-.0894a.18962.18962,0,0,0-.268.268Z" fill="#c16d3e"/>
        <path d="M54.3866,71.527l.0948.0098c.2867.0298.2872-.4759,0-.446l-.0948.0098a.21334.21334,0,0,0,0,.4264Z" fill="#c16d3e"/>
        <path d="M61.5175,62.3553c.002-.0482.0029-.0632.0027-.0453a.19212.19212,0,1,0-.3318,0c-.0002-.0179.0007-.0029.0027.0453a.1633.1633,0,0,0,.3264,0Z" fill="#c16d3e"/>
        <path d="M61.3157,64.6655a.401.401,0,0,0,.1858-.2789.155.155,0,0,0-.1878-.1877.39969.39969,0,0,0-.2789.1858c-.1188.163.1178.3996.2809.2808Z" fill="#c16d3e"/>
        <path d="M60.1607,61.2969l-.0206-.0891a.21715.21715,0,0,0-.4156,0l-.0206.0891c-.0881.3816.5454.384.4568,0Z" fill="#c16d3e"/>
        <path d="M59.4938,64.9029a.35625.35625,0,0,0,.1693-.2291.16546.16546,0,0,0-.2008-.2007.356.356,0,0,0-.2291.1693.18436.18436,0,0,0,.2606.2605Z" fill="#c16d3e"/>
        <path d="M61.9177,77.9971a.52346.52346,0,0,0-.0573-.3308.093.093,0,0,0-.159,0,.52417.52417,0,0,0-.0574.3308.13694.13694,0,0,0,.2737,0Z" fill="#c16d3e"/>
        <path d="M62.6816,76.7174l.0071.0948a.2299.2299,0,0,0,.4595,0l.0071-.0948c.0229-.3047-.4966-.3053-.4737,0Z" fill="#c16d3e"/>
        <path d="M63.6996,78.5889a.40315.40315,0,0,0-.1395.0617.23523.23523,0,0,0,0,.3995.40109.40109,0,0,0,.1395.0616c.4363.1146.439-.6381,0-.5228Z" fill="#c16d3e"/>
        <path d="M59.7976,79.0935a.4374.4374,0,0,0-.0565-.1554.10938.10938,0,0,0-.1864,0,.44127.44127,0,0,0-.0565.1554c-.0579.2501.3577.2516.2994,0Z" fill="#c16d3e"/>
        <path d="M59.6399,76.8596a.52715.52715,0,0,0-.041-.1967.10842.10842,0,0,0-.1864,0,.53.53,0,0,0-.041.1967c-.0102.1727.2786.173.2684,0Z" fill="#c16d3e"/>
        <path d="M67.0422,77.9051a.518.518,0,0,0-.2009.0526.21155.21155,0,0,0,0,.3633.518.518,0,0,0,.2009.0526c.3014.0218.3019-.4904,0-.4685Z" fill="#c16d3e"/>
        <path d="M64.3887,83.007a.37339.37339,0,0,0,.1852-.0839.12974.12974,0,0,0,0-.1824.37041.37041,0,0,0-.1852-.0839c-.2925-.0679-.2943.4185,0,.3502Z" fill="#c16d3e"/>
        <path d="M62.8128,66.4689a4.19575,4.19575,0,0,0-3.7916-2.7909,6.24806,6.24806,0,0,0-2.6888.575c-2.0444.9828-2.7859,3.7061-.4919,4.9517a16.9834,16.9834,0,0,1,2.2086.9635c.7819.5889,1.1672,1.9997,2.3069,2.0275a1.32025,1.32025,0,0,0,1.0584-.5029,6.26013,6.26013,0,0,0,.6131-1.5565c.2367-.5908.5795-1.1462.7786-1.7516A3.08232,3.08232,0,0,0,62.8128,66.4689Z" fill="#ffe1b7"/>
        <path d="M60.6755,64.6955a3.85578,3.85578,0,0,0-4.913.6104.9492.9492,0,0,0-.297,1.0504.88819.88819,0,0,0,.7847.3973c.3075.0075.6116-.0696.9192-.0742.8808-.0134,1.4076.7335,2.2041,1.0186a3.184,3.184,0,0,0,1.4329.1644,1.3242,1.3242,0,0,0,.6419-.2159,1.12563,1.12563,0,0,0,.4005-.688A2.26541,2.26541,0,0,0,60.6755,64.6955Z" fill="#fff5e9"/>
        <path d="M50.8779,72.0627a2.548,2.548,0,0,0-3.8241.0678c-.8932.8802-2.1449,2.9369-.9836,4.0488.6634.6352,1.5782.1869,2.1138.9134a19.48762,19.48762,0,0,0,1.736,2.6855,2.8827,2.8827,0,0,0,1.9045.846,2.30977,2.30977,0,0,0,1.8724-.8489c.3778-.4873.5399-1.1449,1.0235-1.5273.1376-.1089.2966-.1907.4228-.3125a1.50861,1.50861,0,0,0-.0619-1.8437,3.97434,3.97434,0,0,0-1.1537-1.1667,11.89161,11.89161,0,0,1-1.6767-1.0392C51.6925,73.3664,51.4118,72.6073,50.8779,72.0627Z" fill="#ffe1b7"/>
        <path d="M49.9695,72.7652a2.21662,2.21662,0,0,0-3.2809,1.3649.67674.67674,0,0,0-.0199.3038c.071.3292.4992.4374.8301.3746a3.26153,3.26153,0,0,1,.9864-.186c.5083.064.8706.5855,1.3799.6409a.94147.94147,0,0,0,.9147-.5574,1.31555,1.31555,0,0,0-.0463-1.1063A2.2273,2.2273,0,0,0,49.9695,72.7652Z" fill="#fff5e9"/>
        <path d="M46.3725,61.3649a3.98132,3.98132,0,0,0-4.2467.7372,38.24043,38.24043,0,0,0-2.6252,2.8095,3.26589,3.26589,0,0,0-1.0827,3.0189,3.54949,3.54949,0,0,0,1.3415,1.6219,5.97387,5.97387,0,0,0,2.4856,1.2929,2.49837,2.49837,0,0,0,2.5212-.8859,5.49626,5.49626,0,0,0,.5392-1.3877,6.0429,6.0429,0,0,1,1.1634-2.0433,6.17792,6.17792,0,0,0,1.2905-1.6705,2.75445,2.75445,0,0,0-.2158-2.1965A3.07207,3.07207,0,0,0,46.3725,61.3649Z" fill="#ffe1b7"/>
        <path d="M46.2981,62.5204c-1.1178-1.2792-3.4276-.3019-4.0805.9785-.1495.2932-.1502.7373.1539.8631a1.16131,1.16131,0,0,0,.2788.0513c.7605.112,1.1963,1.0079,1.9451,1.1814a1.65549,1.65549,0,0,0,1.6003-.7585,2.28131,2.28131,0,0,0,.4592-1.1491A1.58438,1.58438,0,0,0,46.2981,62.5204Z" fill="#fff5e9"/>
        <path d="M40.4105,75.1518a1.98059,1.98059,0,0,0-2.947-.315,4.70708,4.70708,0,0,0-1.4857,2.6094,8.746,8.746,0,0,0-.4908,3.0386.41788.41788,0,0,0,.0942.3102.455.455,0,0,0,.3654.0546,3.71373,3.71373,0,0,1,1.2868.0737,7.35957,7.35957,0,0,0,1.8564.4372,3.21873,3.21873,0,0,0,2.088-1.1717,2.86739,2.86739,0,0,0,.9755-1.8625,2.73106,2.73106,0,0,0-.3754-1.2449A8.6497,8.6497,0,0,0,40.4105,75.1518Z" fill="#ffe1b7"/>
        <path d="M39.1386,75.1313c-.4382-.0441-1.0907.0396-1.0959.6346-.0028.3519.3669.5328.6123.7353a13.26686,13.26686,0,0,1,1.2236,1.6517.85069.85069,0,0,0,.5678.3347.695.695,0,0,0,.6375-.6568,1.94749,1.94749,0,0,0-.2373-.9677,4.55274,4.55274,0,0,0-.631-1.1056A1.67829,1.67829,0,0,0,39.1386,75.1313Z" fill="#fff5e9"/>
        <path d="M51.703,84.6108c-2.0757-.7217-2.7.9481-3.9208,2.1419-.4203.4109-.9106.7475-1.31,1.1786a2.12022,2.12022,0,0,0-.6538,1.5807,1.91945,1.91945,0,0,0,.8102,1.2952,5.66209,5.66209,0,0,0,1.4063.6924,7.38215,7.38215,0,0,0,3.1992.6951,2.54147,2.54147,0,0,0,2.3798-1.9231,8.882,8.882,0,0,0-.1074-1.6307c-.0226-.543.0941-1.0864.0513-1.6281A2.842,2.842,0,0,0,51.703,84.6108Z" fill="#ffe1b7"/>
        <path d="M65.4227,75.3642c-1.6926-.9618-5.2121-1.0455-6.2533,1.0137a2.74912,2.74912,0,0,0-.0738,1.9588,10.54951,10.54951,0,0,0,2.3728,3.8236c.3023.3571.6958.7489,1.1574.6719a1.37249,1.37249,0,0,0,.6042-.3367q.4542-.36675.9085-.7335a8.95972,8.95972,0,0,0,2.2534-2.3236,3.0432,3.0432,0,0,0,.1287-3.0922A3.07476,3.07476,0,0,0,65.4227,75.3642Z" fill="#ffe1b7"/>
        <path d="M62.1578,75.5755c-1.2451.3284-2.2068,1.1497-1.7143,2.4932a1.05842,1.05842,0,0,0,.5699.665,1.39509,1.39509,0,0,0,1.1437-.2886q.50115-.3027,1.0021-.6053a1.25833,1.25833,0,0,0,.4256-.3524,1.10868,1.10868,0,0,0,.1452-.4951,1.42663,1.42663,0,0,0-.3523-1.2776A1.37325,1.37325,0,0,0,62.1578,75.5755Z" fill="#fff5e9"/>
        <path d="M51.1027,85.6627c-1.0865-.1302-2.2692,1.1161-2.6156,2.0347a.33274.33274,0,0,0-.0293.1538c.024.2039.3108.2116.5159.2052a3.287,3.287,0,0,1,1.869.8628,1.36853,1.36853,0,0,0,.4667.2422.903.903,0,0,0,.8071-.2563,1.59563,1.59563,0,0,0,.4079-.7701,2.226,2.226,0,0,0-.1598-1.5694A1.703,1.703,0,0,0,51.1027,85.6627Z" fill="#fff5e9"/>
      </g>
    </g>
  </g>
</svg>
